<?xml version="1.0" encoding="utf-8" standalone="no"?>
<!DOCTYPE svg PUBLIC "-//W3C//DTD SVG 1.1//EN"
  "http://www.w3.org/Graphics/SVG/1.1/DTD/svg11.dtd">
<!-- Created with matplotlib (https://matplotlib.org/) -->
<svg height="345.6pt" version="1.1" viewBox="0 0 460.8 345.6" width="460.8pt" xmlns="http://www.w3.org/2000/svg" xmlns:xlink="http://www.w3.org/1999/xlink">
 <metadata>
  <rdf:RDF xmlns:cc="http://creativecommons.org/ns#" xmlns:dc="http://purl.org/dc/elements/1.1/" xmlns:rdf="http://www.w3.org/1999/02/22-rdf-syntax-ns#">
   <cc:Work>
    <dc:type rdf:resource="http://purl.org/dc/dcmitype/StillImage"/>
    <dc:date>2020-12-11T19:48:09.457297</dc:date>
    <dc:format>image/svg+xml</dc:format>
    <dc:creator>
     <cc:Agent>
      <dc:title>Matplotlib v3.3.3, https://matplotlib.org/</dc:title>
     </cc:Agent>
    </dc:creator>
   </cc:Work>
  </rdf:RDF>
 </metadata>
 <defs>
  <style type="text/css">*{stroke-linecap:butt;stroke-linejoin:round;}</style>
 </defs>
 <g id="figure_1">
  <g id="patch_1">
   <path d="M 0 345.6 
L 460.8 345.6 
L 460.8 0 
L 0 0 
z
" style="fill:#ffffff;"/>
  </g>
  <g id="axes_1">
   <g id="patch_2">
    <path d="M 57.6 307.584 
L 414.72 307.584 
L 414.72 41.472 
L 57.6 41.472 
z
" style="fill:#ffffff;"/>
   </g>
   <g id="patch_3">
    <path clip-path="url(#p57868bab1a)" d="M 73.832727 307.584 
L 76.435169 307.584 
L 76.435169 114.708324 
L 73.832727 114.708324 
z
" style="fill:#1f77b4;"/>
   </g>
   <g id="patch_4">
    <path clip-path="url(#p57868bab1a)" d="M 77.085779 307.584 
L 79.68822 307.584 
L 79.68822 132.377975 
L 77.085779 132.377975 
z
" style="fill:#1f77b4;"/>
   </g>
   <g id="patch_5">
    <path clip-path="url(#p57868bab1a)" d="M 80.33883 307.584 
L 82.941272 307.584 
L 82.941272 139.219767 
L 80.33883 139.219767 
z
" style="fill:#1f77b4;"/>
   </g>
   <g id="patch_6">
    <path clip-path="url(#p57868bab1a)" d="M 83.591882 307.584 
L 86.194323 307.584 
L 86.194323 143.896537 
L 83.591882 143.896537 
z
" style="fill:#1f77b4;"/>
   </g>
   <g id="patch_7">
    <path clip-path="url(#p57868bab1a)" d="M 86.844934 307.584 
L 89.447375 307.584 
L 89.447375 145.646936 
L 86.844934 145.646936 
z
" style="fill:#1f77b4;"/>
   </g>
   <g id="patch_8">
    <path clip-path="url(#p57868bab1a)" d="M 90.097985 307.584 
L 92.700426 307.584 
L 92.700426 152.479871 
L 90.097985 152.479871 
z
" style="fill:#1f77b4;"/>
   </g>
   <g id="patch_9">
    <path clip-path="url(#p57868bab1a)" d="M 93.351037 307.584 
L 95.953478 307.584 
L 95.953478 162.895669 
L 93.351037 162.895669 
z
" style="fill:#1f77b4;"/>
   </g>
   <g id="patch_10">
    <path clip-path="url(#p57868bab1a)" d="M 96.604088 307.584 
L 99.206529 307.584 
L 99.206529 166.551079 
L 96.604088 166.551079 
z
" style="fill:#1f77b4;"/>
   </g>
   <g id="patch_11">
    <path clip-path="url(#p57868bab1a)" d="M 99.85714 307.584 
L 102.459581 307.584 
L 102.459581 169.542455 
L 99.85714 169.542455 
z
" style="fill:#1f77b4;"/>
   </g>
   <g id="patch_12">
    <path clip-path="url(#p57868bab1a)" d="M 103.110191 307.584 
L 105.712633 307.584 
L 105.712633 176.317762 
L 103.110191 176.317762 
z
" style="fill:#1f77b4;"/>
   </g>
   <g id="patch_13">
    <path clip-path="url(#p57868bab1a)" d="M 106.363243 307.584 
L 108.965684 307.584 
L 108.965684 180.75979 
L 106.363243 180.75979 
z
" style="fill:#1f77b4;"/>
   </g>
   <g id="patch_14">
    <path clip-path="url(#p57868bab1a)" d="M 109.616294 307.584 
L 112.218736 307.584 
L 112.218736 189.197007 
L 109.616294 189.197007 
z
" style="fill:#1f77b4;"/>
   </g>
   <g id="patch_15">
    <path clip-path="url(#p57868bab1a)" d="M 112.869346 307.584 
L 115.471787 307.584 
L 115.471787 197.589104 
L 112.869346 197.589104 
z
" style="fill:#1f77b4;"/>
   </g>
   <g id="patch_16">
    <path clip-path="url(#p57868bab1a)" d="M 116.122398 307.584 
L 118.724839 307.584 
L 118.724839 200.300893 
L 116.122398 200.300893 
z
" style="fill:#1f77b4;"/>
   </g>
   <g id="patch_17">
    <path clip-path="url(#p57868bab1a)" d="M 119.375449 307.584 
L 121.97789 307.584 
L 121.97789 199.721978 
L 119.375449 199.721978 
z
" style="fill:#1f77b4;"/>
   </g>
   <g id="patch_18">
    <path clip-path="url(#p57868bab1a)" d="M 122.628501 307.584 
L 125.230942 307.584 
L 125.230942 204.132306 
L 122.628501 204.132306 
z
" style="fill:#1f77b4;"/>
   </g>
   <g id="patch_19">
    <path clip-path="url(#p57868bab1a)" d="M 125.881552 307.584 
L 128.483993 307.584 
L 128.483993 204.046494 
L 125.881552 204.046494 
z
" style="fill:#1f77b4;"/>
   </g>
   <g id="patch_20">
    <path clip-path="url(#p57868bab1a)" d="M 129.134604 307.584 
L 131.737045 307.584 
L 131.737045 203.940703 
L 129.134604 203.940703 
z
" style="fill:#1f77b4;"/>
   </g>
   <g id="patch_21">
    <path clip-path="url(#p57868bab1a)" d="M 132.387655 307.584 
L 134.990097 307.584 
L 134.990097 203.154694 
L 132.387655 203.154694 
z
" style="fill:#1f77b4;"/>
   </g>
   <g id="patch_22">
    <path clip-path="url(#p57868bab1a)" d="M 135.640707 307.584 
L 138.243148 307.584 
L 138.243148 204.462237 
L 135.640707 204.462237 
z
" style="fill:#1f77b4;"/>
   </g>
   <g id="patch_23">
    <path clip-path="url(#p57868bab1a)" d="M 138.893758 307.584 
L 141.4962 307.584 
L 141.4962 205.079447 
L 138.893758 205.079447 
z
" style="fill:#1f77b4;"/>
   </g>
   <g id="patch_24">
    <path clip-path="url(#p57868bab1a)" d="M 142.14681 307.584 
L 144.749251 307.584 
L 144.749251 205.568235 
L 142.14681 205.568235 
z
" style="fill:#1f77b4;"/>
   </g>
   <g id="patch_25">
    <path clip-path="url(#p57868bab1a)" d="M 145.399862 307.584 
L 148.002303 307.584 
L 148.002303 206.241218 
L 145.399862 206.241218 
z
" style="fill:#1f77b4;"/>
   </g>
   <g id="patch_26">
    <path clip-path="url(#p57868bab1a)" d="M 148.652913 307.584 
L 151.255354 307.584 
L 151.255354 209.614325 
L 148.652913 209.614325 
z
" style="fill:#1f77b4;"/>
   </g>
   <g id="patch_27">
    <path clip-path="url(#p57868bab1a)" d="M 151.905965 307.584 
L 154.508406 307.584 
L 154.508406 207.484239 
L 151.905965 207.484239 
z
" style="fill:#1f77b4;"/>
   </g>
   <g id="patch_28">
    <path clip-path="url(#p57868bab1a)" d="M 155.159016 307.584 
L 157.761457 307.584 
L 157.761457 208.176074 
L 155.159016 208.176074 
z
" style="fill:#1f77b4;"/>
   </g>
   <g id="patch_29">
    <path clip-path="url(#p57868bab1a)" d="M 158.412068 307.584 
L 161.014509 307.584 
L 161.014509 207.777985 
L 158.412068 207.777985 
z
" style="fill:#1f77b4;"/>
   </g>
   <g id="patch_30">
    <path clip-path="url(#p57868bab1a)" d="M 161.665119 307.584 
L 164.267561 307.584 
L 164.267561 205.99942 
L 161.665119 205.99942 
z
" style="fill:#1f77b4;"/>
   </g>
   <g id="patch_31">
    <path clip-path="url(#p57868bab1a)" d="M 164.918171 307.584 
L 167.520612 307.584 
L 167.520612 206.315767 
L 164.918171 206.315767 
z
" style="fill:#1f77b4;"/>
   </g>
   <g id="patch_32">
    <path clip-path="url(#p57868bab1a)" d="M 168.171222 307.584 
L 170.773664 307.584 
L 170.773664 204.372382 
L 168.171222 204.372382 
z
" style="fill:#1f77b4;"/>
   </g>
   <g id="patch_33">
    <path clip-path="url(#p57868bab1a)" d="M 171.424274 307.584 
L 174.026715 307.584 
L 174.026715 202.995258 
L 171.424274 202.995258 
z
" style="fill:#1f77b4;"/>
   </g>
   <g id="patch_34">
    <path clip-path="url(#p57868bab1a)" d="M 174.677326 307.584 
L 177.279767 307.584 
L 177.279767 203.665978 
L 174.677326 203.665978 
z
" style="fill:#1f77b4;"/>
   </g>
   <g id="patch_35">
    <path clip-path="url(#p57868bab1a)" d="M 177.930377 307.584 
L 180.532818 307.584 
L 180.532818 202.88364 
L 177.930377 202.88364 
z
" style="fill:#1f77b4;"/>
   </g>
   <g id="patch_36">
    <path clip-path="url(#p57868bab1a)" d="M 181.183429 307.584 
L 183.78587 307.584 
L 183.78587 202.146853 
L 181.183429 202.146853 
z
" style="fill:#1f77b4;"/>
   </g>
   <g id="patch_37">
    <path clip-path="url(#p57868bab1a)" d="M 184.43648 307.584 
L 187.038921 307.584 
L 187.038921 201.261252 
L 184.43648 201.261252 
z
" style="fill:#1f77b4;"/>
   </g>
   <g id="patch_38">
    <path clip-path="url(#p57868bab1a)" d="M 187.689532 307.584 
L 190.291973 307.584 
L 190.291973 205.074267 
L 187.689532 205.074267 
z
" style="fill:#1f77b4;"/>
   </g>
   <g id="patch_39">
    <path clip-path="url(#p57868bab1a)" d="M 190.942583 307.584 
L 193.545025 307.584 
L 193.545025 205.291934 
L 190.942583 205.291934 
z
" style="fill:#1f77b4;"/>
   </g>
   <g id="patch_40">
    <path clip-path="url(#p57868bab1a)" d="M 194.195635 307.584 
L 196.798076 307.584 
L 196.798076 204.715027 
L 194.195635 204.715027 
z
" style="fill:#1f77b4;"/>
   </g>
   <g id="patch_41">
    <path clip-path="url(#p57868bab1a)" d="M 197.448686 307.584 
L 200.051128 307.584 
L 200.051128 205.088982 
L 197.448686 205.088982 
z
" style="fill:#1f77b4;"/>
   </g>
   <g id="patch_42">
    <path clip-path="url(#p57868bab1a)" d="M 200.701738 307.584 
L 203.304179 307.584 
L 203.304179 205.351059 
L 200.701738 205.351059 
z
" style="fill:#1f77b4;"/>
   </g>
   <g id="patch_43">
    <path clip-path="url(#p57868bab1a)" d="M 203.95479 307.584 
L 206.557231 307.584 
L 206.557231 204.646771 
L 203.95479 204.646771 
z
" style="fill:#1f77b4;"/>
   </g>
   <g id="patch_44">
    <path clip-path="url(#p57868bab1a)" d="M 207.207841 307.584 
L 209.810282 307.584 
L 209.810282 203.405128 
L 207.207841 203.405128 
z
" style="fill:#1f77b4;"/>
   </g>
   <g id="patch_45">
    <path clip-path="url(#p57868bab1a)" d="M 210.460893 307.584 
L 213.063334 307.584 
L 213.063334 202.266742 
L 210.460893 202.266742 
z
" style="fill:#1f77b4;"/>
   </g>
   <g id="patch_46">
    <path clip-path="url(#p57868bab1a)" d="M 213.713944 307.584 
L 216.316385 307.584 
L 216.316385 202.766818 
L 213.713944 202.766818 
z
" style="fill:#1f77b4;"/>
   </g>
   <g id="patch_47">
    <path clip-path="url(#p57868bab1a)" d="M 216.966996 307.584 
L 219.569437 307.584 
L 219.569437 202.748019 
L 216.966996 202.748019 
z
" style="fill:#1f77b4;"/>
   </g>
   <g id="patch_48">
    <path clip-path="url(#p57868bab1a)" d="M 220.220047 307.584 
L 222.822489 307.584 
L 222.822489 201.437482 
L 220.220047 201.437482 
z
" style="fill:#1f77b4;"/>
   </g>
   <g id="patch_49">
    <path clip-path="url(#p57868bab1a)" d="M 223.473099 307.584 
L 226.07554 307.584 
L 226.07554 203.102 
L 223.473099 203.102 
z
" style="fill:#1f77b4;"/>
   </g>
   <g id="patch_50">
    <path clip-path="url(#p57868bab1a)" d="M 226.72615 307.584 
L 229.328592 307.584 
L 229.328592 204.577131 
L 226.72615 204.577131 
z
" style="fill:#1f77b4;"/>
   </g>
   <g id="patch_51">
    <path clip-path="url(#p57868bab1a)" d="M 229.979202 307.584 
L 232.581643 307.584 
L 232.581643 206.299452 
L 229.979202 206.299452 
z
" style="fill:#1f77b4;"/>
   </g>
   <g id="patch_52">
    <path clip-path="url(#p57868bab1a)" d="M 233.232254 307.584 
L 235.834695 307.584 
L 235.834695 208.072669 
L 233.232254 208.072669 
z
" style="fill:#1f77b4;"/>
   </g>
   <g id="patch_53">
    <path clip-path="url(#p57868bab1a)" d="M 236.485305 307.584 
L 239.087746 307.584 
L 239.087746 208.05013 
L 236.485305 208.05013 
z
" style="fill:#1f77b4;"/>
   </g>
   <g id="patch_54">
    <path clip-path="url(#p57868bab1a)" d="M 239.738357 307.584 
L 242.340798 307.584 
L 242.340798 210.138046 
L 239.738357 210.138046 
z
" style="fill:#1f77b4;"/>
   </g>
   <g id="patch_55">
    <path clip-path="url(#p57868bab1a)" d="M 242.991408 307.584 
L 245.59385 307.584 
L 245.59385 210.102398 
L 242.991408 210.102398 
z
" style="fill:#1f77b4;"/>
   </g>
   <g id="patch_56">
    <path clip-path="url(#p57868bab1a)" d="M 246.24446 307.584 
L 248.846901 307.584 
L 248.846901 211.743339 
L 246.24446 211.743339 
z
" style="fill:#1f77b4;"/>
   </g>
   <g id="patch_57">
    <path clip-path="url(#p57868bab1a)" d="M 249.497511 307.584 
L 252.099953 307.584 
L 252.099953 214.941018 
L 249.497511 214.941018 
z
" style="fill:#1f77b4;"/>
   </g>
   <g id="patch_58">
    <path clip-path="url(#p57868bab1a)" d="M 252.750563 307.584 
L 255.353004 307.584 
L 255.353004 217.008102 
L 252.750563 217.008102 
z
" style="fill:#1f77b4;"/>
   </g>
   <g id="patch_59">
    <path clip-path="url(#p57868bab1a)" d="M 256.003615 307.584 
L 258.606056 307.584 
L 258.606056 216.983745 
L 256.003615 216.983745 
z
" style="fill:#1f77b4;"/>
   </g>
   <g id="patch_60">
    <path clip-path="url(#p57868bab1a)" d="M 259.256666 307.584 
L 261.859107 307.584 
L 261.859107 217.353894 
L 259.256666 217.353894 
z
" style="fill:#1f77b4;"/>
   </g>
   <g id="patch_61">
    <path clip-path="url(#p57868bab1a)" d="M 262.509718 307.584 
L 265.112159 307.584 
L 265.112159 218.093442 
L 262.509718 218.093442 
z
" style="fill:#1f77b4;"/>
   </g>
   <g id="patch_62">
    <path clip-path="url(#p57868bab1a)" d="M 265.762769 307.584 
L 268.36521 307.584 
L 268.36521 218.641845 
L 265.762769 218.641845 
z
" style="fill:#1f77b4;"/>
   </g>
   <g id="patch_63">
    <path clip-path="url(#p57868bab1a)" d="M 269.015821 307.584 
L 271.618262 307.584 
L 271.618262 218.794556 
L 269.015821 218.794556 
z
" style="fill:#1f77b4;"/>
   </g>
   <g id="patch_64">
    <path clip-path="url(#p57868bab1a)" d="M 272.268872 307.584 
L 274.871314 307.584 
L 274.871314 217.708361 
L 272.268872 217.708361 
z
" style="fill:#1f77b4;"/>
   </g>
   <g id="patch_65">
    <path clip-path="url(#p57868bab1a)" d="M 275.521924 307.584 
L 278.124365 307.584 
L 278.124365 216.582132 
L 275.521924 216.582132 
z
" style="fill:#1f77b4;"/>
   </g>
   <g id="patch_66">
    <path clip-path="url(#p57868bab1a)" d="M 278.774975 307.584 
L 281.377417 307.584 
L 281.377417 217.023809 
L 278.774975 217.023809 
z
" style="fill:#1f77b4;"/>
   </g>
   <g id="patch_67">
    <path clip-path="url(#p57868bab1a)" d="M 282.028027 307.584 
L 284.630468 307.584 
L 284.630468 217.515085 
L 282.028027 217.515085 
z
" style="fill:#1f77b4;"/>
   </g>
   <g id="patch_68">
    <path clip-path="url(#p57868bab1a)" d="M 285.281079 307.584 
L 287.88352 307.584 
L 287.88352 217.170982 
L 285.281079 217.170982 
z
" style="fill:#1f77b4;"/>
   </g>
   <g id="patch_69">
    <path clip-path="url(#p57868bab1a)" d="M 288.53413 307.584 
L 291.136571 307.584 
L 291.136571 217.128831 
L 288.53413 217.128831 
z
" style="fill:#1f77b4;"/>
   </g>
   <g id="patch_70">
    <path clip-path="url(#p57868bab1a)" d="M 291.787182 307.584 
L 294.389623 307.584 
L 294.389623 217.448234 
L 291.787182 217.448234 
z
" style="fill:#1f77b4;"/>
   </g>
   <g id="patch_71">
    <path clip-path="url(#p57868bab1a)" d="M 295.040233 307.584 
L 297.642674 307.584 
L 297.642674 217.24498 
L 295.040233 217.24498 
z
" style="fill:#1f77b4;"/>
   </g>
   <g id="patch_72">
    <path clip-path="url(#p57868bab1a)" d="M 298.293285 307.584 
L 300.895726 307.584 
L 300.895726 216.81833 
L 298.293285 216.81833 
z
" style="fill:#1f77b4;"/>
   </g>
   <g id="patch_73">
    <path clip-path="url(#p57868bab1a)" d="M 301.546336 307.584 
L 304.148778 307.584 
L 304.148778 217.030105 
L 301.546336 217.030105 
z
" style="fill:#1f77b4;"/>
   </g>
   <g id="patch_74">
    <path clip-path="url(#p57868bab1a)" d="M 304.799388 307.584 
L 307.401829 307.584 
L 307.401829 216.06623 
L 304.799388 216.06623 
z
" style="fill:#1f77b4;"/>
   </g>
   <g id="patch_75">
    <path clip-path="url(#p57868bab1a)" d="M 308.052439 307.584 
L 310.654881 307.584 
L 310.654881 216.104875 
L 308.052439 216.104875 
z
" style="fill:#1f77b4;"/>
   </g>
   <g id="patch_76">
    <path clip-path="url(#p57868bab1a)" d="M 311.305491 307.584 
L 313.907932 307.584 
L 313.907932 215.953035 
L 311.305491 215.953035 
z
" style="fill:#1f77b4;"/>
   </g>
   <g id="patch_77">
    <path clip-path="url(#p57868bab1a)" d="M 314.558543 307.584 
L 317.160984 307.584 
L 317.160984 216.111554 
L 314.558543 216.111554 
z
" style="fill:#1f77b4;"/>
   </g>
   <g id="patch_78">
    <path clip-path="url(#p57868bab1a)" d="M 317.811594 307.584 
L 320.414035 307.584 
L 320.414035 216.980072 
L 317.811594 216.980072 
z
" style="fill:#1f77b4;"/>
   </g>
   <g id="patch_79">
    <path clip-path="url(#p57868bab1a)" d="M 321.064646 307.584 
L 323.667087 307.584 
L 323.667087 216.714748 
L 321.064646 216.714748 
z
" style="fill:#1f77b4;"/>
   </g>
   <g id="patch_80">
    <path clip-path="url(#p57868bab1a)" d="M 324.317697 307.584 
L 326.920138 307.584 
L 326.920138 216.23705 
L 324.317697 216.23705 
z
" style="fill:#1f77b4;"/>
   </g>
   <g id="patch_81">
    <path clip-path="url(#p57868bab1a)" d="M 327.570749 307.584 
L 330.17319 307.584 
L 330.17319 216.559539 
L 327.570749 216.559539 
z
" style="fill:#1f77b4;"/>
   </g>
   <g id="patch_82">
    <path clip-path="url(#p57868bab1a)" d="M 330.8238 307.584 
L 333.426242 307.584 
L 333.426242 218.59929 
L 330.8238 218.59929 
z
" style="fill:#1f77b4;"/>
   </g>
   <g id="patch_83">
    <path clip-path="url(#p57868bab1a)" d="M 334.076852 307.584 
L 336.679293 307.584 
L 336.679293 220.987874 
L 334.076852 220.987874 
z
" style="fill:#1f77b4;"/>
   </g>
   <g id="patch_84">
    <path clip-path="url(#p57868bab1a)" d="M 337.329903 307.584 
L 339.932345 307.584 
L 339.932345 222.481964 
L 337.329903 222.481964 
z
" style="fill:#1f77b4;"/>
   </g>
   <g id="patch_85">
    <path clip-path="url(#p57868bab1a)" d="M 340.582955 307.584 
L 343.185396 307.584 
L 343.185396 223.485738 
L 340.582955 223.485738 
z
" style="fill:#1f77b4;"/>
   </g>
   <g id="patch_86">
    <path clip-path="url(#p57868bab1a)" d="M 343.836007 307.584 
L 346.438448 307.584 
L 346.438448 224.424266 
L 343.836007 224.424266 
z
" style="fill:#1f77b4;"/>
   </g>
   <g id="patch_87">
    <path clip-path="url(#p57868bab1a)" d="M 347.089058 307.584 
L 349.691499 307.584 
L 349.691499 225.513411 
L 347.089058 225.513411 
z
" style="fill:#1f77b4;"/>
   </g>
   <g id="patch_88">
    <path clip-path="url(#p57868bab1a)" d="M 350.34211 307.584 
L 352.944551 307.584 
L 352.944551 226.742626 
L 350.34211 226.742626 
z
" style="fill:#1f77b4;"/>
   </g>
   <g id="patch_89">
    <path clip-path="url(#p57868bab1a)" d="M 353.595161 307.584 
L 356.197602 307.584 
L 356.197602 227.622471 
L 353.595161 227.622471 
z
" style="fill:#1f77b4;"/>
   </g>
   <g id="patch_90">
    <path clip-path="url(#p57868bab1a)" d="M 356.848213 307.584 
L 359.450654 307.584 
L 359.450654 228.818431 
L 356.848213 228.818431 
z
" style="fill:#1f77b4;"/>
   </g>
   <g id="patch_91">
    <path clip-path="url(#p57868bab1a)" d="M 360.101264 307.584 
L 362.703706 307.584 
L 362.703706 229.606423 
L 360.101264 229.606423 
z
" style="fill:#1f77b4;"/>
   </g>
   <g id="patch_92">
    <path clip-path="url(#p57868bab1a)" d="M 363.354316 307.584 
L 365.956757 307.584 
L 365.956757 229.101194 
L 363.354316 229.101194 
z
" style="fill:#1f77b4;"/>
   </g>
   <g id="patch_93">
    <path clip-path="url(#p57868bab1a)" d="M 366.607367 307.584 
L 369.209809 307.584 
L 369.209809 229.858832 
L 366.607367 229.858832 
z
" style="fill:#1f77b4;"/>
   </g>
   <g id="patch_94">
    <path clip-path="url(#p57868bab1a)" d="M 369.860419 307.584 
L 372.46286 307.584 
L 372.46286 229.279129 
L 369.860419 229.279129 
z
" style="fill:#1f77b4;"/>
   </g>
   <g id="patch_95">
    <path clip-path="url(#p57868bab1a)" d="M 373.113471 307.584 
L 375.715912 307.584 
L 375.715912 229.021495 
L 373.113471 229.021495 
z
" style="fill:#1f77b4;"/>
   </g>
   <g id="patch_96">
    <path clip-path="url(#p57868bab1a)" d="M 376.366522 307.584 
L 378.968963 307.584 
L 378.968963 228.641649 
L 376.366522 228.641649 
z
" style="fill:#1f77b4;"/>
   </g>
   <g id="patch_97">
    <path clip-path="url(#p57868bab1a)" d="M 379.619574 307.584 
L 382.222015 307.584 
L 382.222015 228.855642 
L 379.619574 228.855642 
z
" style="fill:#1f77b4;"/>
   </g>
   <g id="patch_98">
    <path clip-path="url(#p57868bab1a)" d="M 382.872625 307.584 
L 385.475066 307.584 
L 385.475066 229.082713 
L 382.872625 229.082713 
z
" style="fill:#1f77b4;"/>
   </g>
   <g id="patch_99">
    <path clip-path="url(#p57868bab1a)" d="M 386.125677 307.584 
L 388.728118 307.584 
L 388.728118 229.878274 
L 386.125677 229.878274 
z
" style="fill:#1f77b4;"/>
   </g>
   <g id="patch_100">
    <path clip-path="url(#p57868bab1a)" d="M 389.378728 307.584 
L 391.98117 307.584 
L 391.98117 231.608058 
L 389.378728 231.608058 
z
" style="fill:#1f77b4;"/>
   </g>
   <g id="patch_101">
    <path clip-path="url(#p57868bab1a)" d="M 392.63178 307.584 
L 395.234221 307.584 
L 395.234221 232.326358 
L 392.63178 232.326358 
z
" style="fill:#1f77b4;"/>
   </g>
   <g id="patch_102">
    <path clip-path="url(#p57868bab1a)" d="M 395.884831 307.584 
L 398.487273 307.584 
L 398.487273 232.157723 
L 395.884831 232.157723 
z
" style="fill:#1f77b4;"/>
   </g>
   <g id="matplotlib.axis_1">
    <g id="xtick_1">
     <g id="line2d_1">
      <defs>
       <path d="M 0 0 
L 0 3.5 
" id="m25fdceaeda" style="stroke:#000000;stroke-width:0.8;"/>
      </defs>
      <g>
       <use style="stroke:#000000;stroke-width:0.8;" x="75.133948" xlink:href="#m25fdceaeda" y="307.584"/>
      </g>
     </g>
     <g id="text_1">
      <!-- 0 -->
      <g transform="translate(71.952698 322.182437)scale(0.1 -0.1)">
       <defs>
        <path d="M 31.78125 66.40625 
Q 24.171875 66.40625 20.328125 58.90625 
Q 16.5 51.421875 16.5 36.375 
Q 16.5 21.390625 20.328125 13.890625 
Q 24.171875 6.390625 31.78125 6.390625 
Q 39.453125 6.390625 43.28125 13.890625 
Q 47.125 21.390625 47.125 36.375 
Q 47.125 51.421875 43.28125 58.90625 
Q 39.453125 66.40625 31.78125 66.40625 
z
M 31.78125 74.21875 
Q 44.046875 74.21875 50.515625 64.515625 
Q 56.984375 54.828125 56.984375 36.375 
Q 56.984375 17.96875 50.515625 8.265625 
Q 44.046875 -1.421875 31.78125 -1.421875 
Q 19.53125 -1.421875 13.0625 8.265625 
Q 6.59375 17.96875 6.59375 36.375 
Q 6.59375 54.828125 13.0625 64.515625 
Q 19.53125 74.21875 31.78125 74.21875 
z
" id="DejaVuSans-48"/>
       </defs>
       <use xlink:href="#DejaVuSans-48"/>
      </g>
     </g>
    </g>
    <g id="xtick_2">
     <g id="line2d_2">
      <g>
       <use style="stroke:#000000;stroke-width:0.8;" x="140.194979" xlink:href="#m25fdceaeda" y="307.584"/>
      </g>
     </g>
     <g id="text_2">
      <!-- 20 -->
      <g transform="translate(133.832479 322.182437)scale(0.1 -0.1)">
       <defs>
        <path d="M 19.1875 8.296875 
L 53.609375 8.296875 
L 53.609375 0 
L 7.328125 0 
L 7.328125 8.296875 
Q 12.9375 14.109375 22.625 23.890625 
Q 32.328125 33.6875 34.8125 36.53125 
Q 39.546875 41.84375 41.421875 45.53125 
Q 43.3125 49.21875 43.3125 52.78125 
Q 43.3125 58.59375 39.234375 62.25 
Q 35.15625 65.921875 28.609375 65.921875 
Q 23.96875 65.921875 18.8125 64.3125 
Q 13.671875 62.703125 7.8125 59.421875 
L 7.8125 69.390625 
Q 13.765625 71.78125 18.9375 73 
Q 24.125 74.21875 28.421875 74.21875 
Q 39.75 74.21875 46.484375 68.546875 
Q 53.21875 62.890625 53.21875 53.421875 
Q 53.21875 48.921875 51.53125 44.890625 
Q 49.859375 40.875 45.40625 35.40625 
Q 44.1875 33.984375 37.640625 27.21875 
Q 31.109375 20.453125 19.1875 8.296875 
z
" id="DejaVuSans-50"/>
       </defs>
       <use xlink:href="#DejaVuSans-50"/>
       <use x="63.623047" xlink:href="#DejaVuSans-48"/>
      </g>
     </g>
    </g>
    <g id="xtick_3">
     <g id="line2d_3">
      <g>
       <use style="stroke:#000000;stroke-width:0.8;" x="205.25601" xlink:href="#m25fdceaeda" y="307.584"/>
      </g>
     </g>
     <g id="text_3">
      <!-- 40 -->
      <g transform="translate(198.89351 322.182437)scale(0.1 -0.1)">
       <defs>
        <path d="M 37.796875 64.3125 
L 12.890625 25.390625 
L 37.796875 25.390625 
z
M 35.203125 72.90625 
L 47.609375 72.90625 
L 47.609375 25.390625 
L 58.015625 25.390625 
L 58.015625 17.1875 
L 47.609375 17.1875 
L 47.609375 0 
L 37.796875 0 
L 37.796875 17.1875 
L 4.890625 17.1875 
L 4.890625 26.703125 
z
" id="DejaVuSans-52"/>
       </defs>
       <use xlink:href="#DejaVuSans-52"/>
       <use x="63.623047" xlink:href="#DejaVuSans-48"/>
      </g>
     </g>
    </g>
    <g id="xtick_4">
     <g id="line2d_4">
      <g>
       <use style="stroke:#000000;stroke-width:0.8;" x="270.317041" xlink:href="#m25fdceaeda" y="307.584"/>
      </g>
     </g>
     <g id="text_4">
      <!-- 60 -->
      <g transform="translate(263.954541 322.182437)scale(0.1 -0.1)">
       <defs>
        <path d="M 33.015625 40.375 
Q 26.375 40.375 22.484375 35.828125 
Q 18.609375 31.296875 18.609375 23.390625 
Q 18.609375 15.53125 22.484375 10.953125 
Q 26.375 6.390625 33.015625 6.390625 
Q 39.65625 6.390625 43.53125 10.953125 
Q 47.40625 15.53125 47.40625 23.390625 
Q 47.40625 31.296875 43.53125 35.828125 
Q 39.65625 40.375 33.015625 40.375 
z
M 52.59375 71.296875 
L 52.59375 62.3125 
Q 48.875 64.0625 45.09375 64.984375 
Q 41.3125 65.921875 37.59375 65.921875 
Q 27.828125 65.921875 22.671875 59.328125 
Q 17.53125 52.734375 16.796875 39.40625 
Q 19.671875 43.65625 24.015625 45.921875 
Q 28.375 48.1875 33.59375 48.1875 
Q 44.578125 48.1875 50.953125 41.515625 
Q 57.328125 34.859375 57.328125 23.390625 
Q 57.328125 12.15625 50.6875 5.359375 
Q 44.046875 -1.421875 33.015625 -1.421875 
Q 20.359375 -1.421875 13.671875 8.265625 
Q 6.984375 17.96875 6.984375 36.375 
Q 6.984375 53.65625 15.1875 63.9375 
Q 23.390625 74.21875 37.203125 74.21875 
Q 40.921875 74.21875 44.703125 73.484375 
Q 48.484375 72.75 52.59375 71.296875 
z
" id="DejaVuSans-54"/>
       </defs>
       <use xlink:href="#DejaVuSans-54"/>
       <use x="63.623047" xlink:href="#DejaVuSans-48"/>
      </g>
     </g>
    </g>
    <g id="xtick_5">
     <g id="line2d_5">
      <g>
       <use style="stroke:#000000;stroke-width:0.8;" x="335.378073" xlink:href="#m25fdceaeda" y="307.584"/>
      </g>
     </g>
     <g id="text_5">
      <!-- 80 -->
      <g transform="translate(329.015573 322.182437)scale(0.1 -0.1)">
       <defs>
        <path d="M 31.78125 34.625 
Q 24.75 34.625 20.71875 30.859375 
Q 16.703125 27.09375 16.703125 20.515625 
Q 16.703125 13.921875 20.71875 10.15625 
Q 24.75 6.390625 31.78125 6.390625 
Q 38.8125 6.390625 42.859375 10.171875 
Q 46.921875 13.96875 46.921875 20.515625 
Q 46.921875 27.09375 42.890625 30.859375 
Q 38.875 34.625 31.78125 34.625 
z
M 21.921875 38.8125 
Q 15.578125 40.375 12.03125 44.71875 
Q 8.5 49.078125 8.5 55.328125 
Q 8.5 64.0625 14.71875 69.140625 
Q 20.953125 74.21875 31.78125 74.21875 
Q 42.671875 74.21875 48.875 69.140625 
Q 55.078125 64.0625 55.078125 55.328125 
Q 55.078125 49.078125 51.53125 44.71875 
Q 48 40.375 41.703125 38.8125 
Q 48.828125 37.15625 52.796875 32.3125 
Q 56.78125 27.484375 56.78125 20.515625 
Q 56.78125 9.90625 50.3125 4.234375 
Q 43.84375 -1.421875 31.78125 -1.421875 
Q 19.734375 -1.421875 13.25 4.234375 
Q 6.78125 9.90625 6.78125 20.515625 
Q 6.78125 27.484375 10.78125 32.3125 
Q 14.796875 37.15625 21.921875 38.8125 
z
M 18.3125 54.390625 
Q 18.3125 48.734375 21.84375 45.5625 
Q 25.390625 42.390625 31.78125 42.390625 
Q 38.140625 42.390625 41.71875 45.5625 
Q 45.3125 48.734375 45.3125 54.390625 
Q 45.3125 60.0625 41.71875 63.234375 
Q 38.140625 66.40625 31.78125 66.40625 
Q 25.390625 66.40625 21.84375 63.234375 
Q 18.3125 60.0625 18.3125 54.390625 
z
" id="DejaVuSans-56"/>
       </defs>
       <use xlink:href="#DejaVuSans-56"/>
       <use x="63.623047" xlink:href="#DejaVuSans-48"/>
      </g>
     </g>
    </g>
    <g id="xtick_6">
     <g id="line2d_6">
      <g>
       <use style="stroke:#000000;stroke-width:0.8;" x="400.439104" xlink:href="#m25fdceaeda" y="307.584"/>
      </g>
     </g>
     <g id="text_6">
      <!-- 100 -->
      <g transform="translate(390.895354 322.182437)scale(0.1 -0.1)">
       <defs>
        <path d="M 12.40625 8.296875 
L 28.515625 8.296875 
L 28.515625 63.921875 
L 10.984375 60.40625 
L 10.984375 69.390625 
L 28.421875 72.90625 
L 38.28125 72.90625 
L 38.28125 8.296875 
L 54.390625 8.296875 
L 54.390625 0 
L 12.40625 0 
z
" id="DejaVuSans-49"/>
       </defs>
       <use xlink:href="#DejaVuSans-49"/>
       <use x="63.623047" xlink:href="#DejaVuSans-48"/>
       <use x="127.246094" xlink:href="#DejaVuSans-48"/>
      </g>
     </g>
    </g>
   </g>
   <g id="matplotlib.axis_2">
    <g id="ytick_1">
     <g id="line2d_7">
      <defs>
       <path d="M 0 0 
L -3.5 0 
" id="md4cf03849b" style="stroke:#000000;stroke-width:0.8;"/>
      </defs>
      <g>
       <use style="stroke:#000000;stroke-width:0.8;" x="57.6" xlink:href="#md4cf03849b" y="307.584"/>
      </g>
     </g>
     <g id="text_7">
      <!-- 0 -->
      <g transform="translate(44.2375 311.383219)scale(0.1 -0.1)">
       <use xlink:href="#DejaVuSans-48"/>
      </g>
     </g>
    </g>
    <g id="ytick_2">
     <g id="line2d_8">
      <g>
       <use style="stroke:#000000;stroke-width:0.8;" x="57.6" xlink:href="#md4cf03849b" y="274.32"/>
      </g>
     </g>
     <g id="text_8">
      <!-- 20 -->
      <g transform="translate(37.875 278.119219)scale(0.1 -0.1)">
       <use xlink:href="#DejaVuSans-50"/>
       <use x="63.623047" xlink:href="#DejaVuSans-48"/>
      </g>
     </g>
    </g>
    <g id="ytick_3">
     <g id="line2d_9">
      <g>
       <use style="stroke:#000000;stroke-width:0.8;" x="57.6" xlink:href="#md4cf03849b" y="241.056"/>
      </g>
     </g>
     <g id="text_9">
      <!-- 40 -->
      <g transform="translate(37.875 244.855219)scale(0.1 -0.1)">
       <use xlink:href="#DejaVuSans-52"/>
       <use x="63.623047" xlink:href="#DejaVuSans-48"/>
      </g>
     </g>
    </g>
    <g id="ytick_4">
     <g id="line2d_10">
      <g>
       <use style="stroke:#000000;stroke-width:0.8;" x="57.6" xlink:href="#md4cf03849b" y="207.792"/>
      </g>
     </g>
     <g id="text_10">
      <!-- 60 -->
      <g transform="translate(37.875 211.591219)scale(0.1 -0.1)">
       <use xlink:href="#DejaVuSans-54"/>
       <use x="63.623047" xlink:href="#DejaVuSans-48"/>
      </g>
     </g>
    </g>
    <g id="ytick_5">
     <g id="line2d_11">
      <g>
       <use style="stroke:#000000;stroke-width:0.8;" x="57.6" xlink:href="#md4cf03849b" y="174.528"/>
      </g>
     </g>
     <g id="text_11">
      <!-- 80 -->
      <g transform="translate(37.875 178.327219)scale(0.1 -0.1)">
       <use xlink:href="#DejaVuSans-56"/>
       <use x="63.623047" xlink:href="#DejaVuSans-48"/>
      </g>
     </g>
    </g>
    <g id="ytick_6">
     <g id="line2d_12">
      <g>
       <use style="stroke:#000000;stroke-width:0.8;" x="57.6" xlink:href="#md4cf03849b" y="141.264"/>
      </g>
     </g>
     <g id="text_12">
      <!-- 100 -->
      <g transform="translate(31.5125 145.063219)scale(0.1 -0.1)">
       <use xlink:href="#DejaVuSans-49"/>
       <use x="63.623047" xlink:href="#DejaVuSans-48"/>
       <use x="127.246094" xlink:href="#DejaVuSans-48"/>
      </g>
     </g>
    </g>
    <g id="ytick_7">
     <g id="line2d_13">
      <g>
       <use style="stroke:#000000;stroke-width:0.8;" x="57.6" xlink:href="#md4cf03849b" y="108"/>
      </g>
     </g>
     <g id="text_13">
      <!-- 120 -->
      <g transform="translate(31.5125 111.799219)scale(0.1 -0.1)">
       <use xlink:href="#DejaVuSans-49"/>
       <use x="63.623047" xlink:href="#DejaVuSans-50"/>
       <use x="127.246094" xlink:href="#DejaVuSans-48"/>
      </g>
     </g>
    </g>
    <g id="ytick_8">
     <g id="line2d_14">
      <g>
       <use style="stroke:#000000;stroke-width:0.8;" x="57.6" xlink:href="#md4cf03849b" y="74.736"/>
      </g>
     </g>
     <g id="text_14">
      <!-- 140 -->
      <g transform="translate(31.5125 78.535219)scale(0.1 -0.1)">
       <use xlink:href="#DejaVuSans-49"/>
       <use x="63.623047" xlink:href="#DejaVuSans-52"/>
       <use x="127.246094" xlink:href="#DejaVuSans-48"/>
      </g>
     </g>
    </g>
    <g id="ytick_9">
     <g id="line2d_15">
      <g>
       <use style="stroke:#000000;stroke-width:0.8;" x="57.6" xlink:href="#md4cf03849b" y="41.472"/>
      </g>
     </g>
     <g id="text_15">
      <!-- 160 -->
      <g transform="translate(31.5125 45.271219)scale(0.1 -0.1)">
       <use xlink:href="#DejaVuSans-49"/>
       <use x="63.623047" xlink:href="#DejaVuSans-54"/>
       <use x="127.246094" xlink:href="#DejaVuSans-48"/>
      </g>
     </g>
    </g>
   </g>
   <g id="patch_103">
    <path d="M 57.6 307.584 
L 57.6 41.472 
" style="fill:none;stroke:#000000;stroke-linecap:square;stroke-linejoin:miter;stroke-width:0.8;"/>
   </g>
   <g id="patch_104">
    <path d="M 414.72 307.584 
L 414.72 41.472 
" style="fill:none;stroke:#000000;stroke-linecap:square;stroke-linejoin:miter;stroke-width:0.8;"/>
   </g>
   <g id="patch_105">
    <path d="M 57.6 307.584 
L 414.72 307.584 
" style="fill:none;stroke:#000000;stroke-linecap:square;stroke-linejoin:miter;stroke-width:0.8;"/>
   </g>
   <g id="patch_106">
    <path d="M 57.6 41.472 
L 414.72 41.472 
" style="fill:none;stroke:#000000;stroke-linecap:square;stroke-linejoin:miter;stroke-width:0.8;"/>
   </g>
  </g>
 </g>
 <defs>
  <clipPath id="p57868bab1a">
   <rect height="266.112" width="357.12" x="57.6" y="41.472"/>
  </clipPath>
 </defs>
</svg>
