<?xml version="1.0" encoding="utf-8" standalone="no"?>
<!DOCTYPE svg PUBLIC "-//W3C//DTD SVG 1.1//EN"
  "http://www.w3.org/Graphics/SVG/1.1/DTD/svg11.dtd">
<!-- Created with matplotlib (https://matplotlib.org/) -->
<svg height="345.6pt" version="1.1" viewBox="0 0 460.8 345.6" width="460.8pt" xmlns="http://www.w3.org/2000/svg" xmlns:xlink="http://www.w3.org/1999/xlink">
 <metadata>
  <rdf:RDF xmlns:cc="http://creativecommons.org/ns#" xmlns:dc="http://purl.org/dc/elements/1.1/" xmlns:rdf="http://www.w3.org/1999/02/22-rdf-syntax-ns#">
   <cc:Work>
    <dc:type rdf:resource="http://purl.org/dc/dcmitype/StillImage"/>
    <dc:date>2020-12-11T19:15:31.159441</dc:date>
    <dc:format>image/svg+xml</dc:format>
    <dc:creator>
     <cc:Agent>
      <dc:title>Matplotlib v3.3.3, https://matplotlib.org/</dc:title>
     </cc:Agent>
    </dc:creator>
   </cc:Work>
  </rdf:RDF>
 </metadata>
 <defs>
  <style type="text/css">*{stroke-linecap:butt;stroke-linejoin:round;}</style>
 </defs>
 <g id="figure_1">
  <g id="patch_1">
   <path d="M 0 345.6 
L 460.8 345.6 
L 460.8 0 
L 0 0 
z
" style="fill:#ffffff;"/>
  </g>
  <g id="axes_1">
   <g id="patch_2">
    <path d="M 57.6 307.584 
L 414.72 307.584 
L 414.72 41.472 
L 57.6 41.472 
z
" style="fill:#ffffff;"/>
   </g>
   <g id="patch_3">
    <path clip-path="url(#pd9e4000e54)" d="M 73.832727 307.584 
L 76.435169 307.584 
L 76.435169 105.189634 
L 73.832727 105.189634 
z
" style="fill:#1f77b4;"/>
   </g>
   <g id="patch_4">
    <path clip-path="url(#pd9e4000e54)" d="M 77.085779 307.584 
L 79.68822 307.584 
L 79.68822 104.327169 
L 77.085779 104.327169 
z
" style="fill:#1f77b4;"/>
   </g>
   <g id="patch_5">
    <path clip-path="url(#pd9e4000e54)" d="M 80.33883 307.584 
L 82.941272 307.584 
L 82.941272 104.519305 
L 80.33883 104.519305 
z
" style="fill:#1f77b4;"/>
   </g>
   <g id="patch_6">
    <path clip-path="url(#pd9e4000e54)" d="M 83.591882 307.584 
L 86.194323 307.584 
L 86.194323 108.513092 
L 83.591882 108.513092 
z
" style="fill:#1f77b4;"/>
   </g>
   <g id="patch_7">
    <path clip-path="url(#pd9e4000e54)" d="M 86.844934 307.584 
L 89.447375 307.584 
L 89.447375 112.00422 
L 86.844934 112.00422 
z
" style="fill:#1f77b4;"/>
   </g>
   <g id="patch_8">
    <path clip-path="url(#pd9e4000e54)" d="M 90.097985 307.584 
L 92.700426 307.584 
L 92.700426 112.19043 
L 90.097985 112.19043 
z
" style="fill:#1f77b4;"/>
   </g>
   <g id="patch_9">
    <path clip-path="url(#pd9e4000e54)" d="M 93.351037 307.584 
L 95.953478 307.584 
L 95.953478 116.189435 
L 93.351037 116.189435 
z
" style="fill:#1f77b4;"/>
   </g>
   <g id="patch_10">
    <path clip-path="url(#pd9e4000e54)" d="M 96.604088 307.584 
L 99.206529 307.584 
L 99.206529 121.265743 
L 96.604088 121.265743 
z
" style="fill:#1f77b4;"/>
   </g>
   <g id="patch_11">
    <path clip-path="url(#pd9e4000e54)" d="M 99.85714 307.584 
L 102.459581 307.584 
L 102.459581 124.26951 
L 99.85714 124.26951 
z
" style="fill:#1f77b4;"/>
   </g>
   <g id="patch_12">
    <path clip-path="url(#pd9e4000e54)" d="M 103.110191 307.584 
L 105.712633 307.584 
L 105.712633 131.5245 
L 103.110191 131.5245 
z
" style="fill:#1f77b4;"/>
   </g>
   <g id="patch_13">
    <path clip-path="url(#pd9e4000e54)" d="M 106.363243 307.584 
L 108.965684 307.584 
L 108.965684 130.08278 
L 106.363243 130.08278 
z
" style="fill:#1f77b4;"/>
   </g>
   <g id="patch_14">
    <path clip-path="url(#pd9e4000e54)" d="M 109.616294 307.584 
L 112.218736 307.584 
L 112.218736 129.840842 
L 109.616294 129.840842 
z
" style="fill:#1f77b4;"/>
   </g>
   <g id="patch_15">
    <path clip-path="url(#pd9e4000e54)" d="M 112.869346 307.584 
L 115.471787 307.584 
L 115.471787 132.646591 
L 112.869346 132.646591 
z
" style="fill:#1f77b4;"/>
   </g>
   <g id="patch_16">
    <path clip-path="url(#pd9e4000e54)" d="M 116.122398 307.584 
L 118.724839 307.584 
L 118.724839 133.914649 
L 116.122398 133.914649 
z
" style="fill:#1f77b4;"/>
   </g>
   <g id="patch_17">
    <path clip-path="url(#pd9e4000e54)" d="M 119.375449 307.584 
L 121.97789 307.584 
L 121.97789 135.314797 
L 119.375449 135.314797 
z
" style="fill:#1f77b4;"/>
   </g>
   <g id="patch_18">
    <path clip-path="url(#pd9e4000e54)" d="M 122.628501 307.584 
L 125.230942 307.584 
L 125.230942 139.672704 
L 122.628501 139.672704 
z
" style="fill:#1f77b4;"/>
   </g>
   <g id="patch_19">
    <path clip-path="url(#pd9e4000e54)" d="M 125.881552 307.584 
L 128.483993 307.584 
L 128.483993 140.956792 
L 125.881552 140.956792 
z
" style="fill:#1f77b4;"/>
   </g>
   <g id="patch_20">
    <path clip-path="url(#pd9e4000e54)" d="M 129.134604 307.584 
L 131.737045 307.584 
L 131.737045 140.873012 
L 129.134604 140.873012 
z
" style="fill:#1f77b4;"/>
   </g>
   <g id="patch_21">
    <path clip-path="url(#pd9e4000e54)" d="M 132.387655 307.584 
L 134.990097 307.584 
L 134.990097 142.759123 
L 132.387655 142.759123 
z
" style="fill:#1f77b4;"/>
   </g>
   <g id="patch_22">
    <path clip-path="url(#pd9e4000e54)" d="M 135.640707 307.584 
L 138.243148 307.584 
L 138.243148 140.96403 
L 135.640707 140.96403 
z
" style="fill:#1f77b4;"/>
   </g>
   <g id="patch_23">
    <path clip-path="url(#pd9e4000e54)" d="M 138.893758 307.584 
L 141.4962 307.584 
L 141.4962 138.317955 
L 138.893758 138.317955 
z
" style="fill:#1f77b4;"/>
   </g>
   <g id="patch_24">
    <path clip-path="url(#pd9e4000e54)" d="M 142.14681 307.584 
L 144.749251 307.584 
L 144.749251 135.558332 
L 142.14681 135.558332 
z
" style="fill:#1f77b4;"/>
   </g>
   <g id="patch_25">
    <path clip-path="url(#pd9e4000e54)" d="M 145.399862 307.584 
L 148.002303 307.584 
L 148.002303 134.896927 
L 145.399862 134.896927 
z
" style="fill:#1f77b4;"/>
   </g>
   <g id="patch_26">
    <path clip-path="url(#pd9e4000e54)" d="M 148.652913 307.584 
L 151.255354 307.584 
L 151.255354 135.278394 
L 148.652913 135.278394 
z
" style="fill:#1f77b4;"/>
   </g>
   <g id="patch_27">
    <path clip-path="url(#pd9e4000e54)" d="M 151.905965 307.584 
L 154.508406 307.584 
L 154.508406 135.46227 
L 151.905965 135.46227 
z
" style="fill:#1f77b4;"/>
   </g>
   <g id="patch_28">
    <path clip-path="url(#pd9e4000e54)" d="M 155.159016 307.584 
L 157.761457 307.584 
L 157.761457 135.569057 
L 155.159016 135.569057 
z
" style="fill:#1f77b4;"/>
   </g>
   <g id="patch_29">
    <path clip-path="url(#pd9e4000e54)" d="M 158.412068 307.584 
L 161.014509 307.584 
L 161.014509 135.135569 
L 158.412068 135.135569 
z
" style="fill:#1f77b4;"/>
   </g>
   <g id="patch_30">
    <path clip-path="url(#pd9e4000e54)" d="M 161.665119 307.584 
L 164.267561 307.584 
L 164.267561 134.781618 
L 161.665119 134.781618 
z
" style="fill:#1f77b4;"/>
   </g>
   <g id="patch_31">
    <path clip-path="url(#pd9e4000e54)" d="M 164.918171 307.584 
L 167.520612 307.584 
L 167.520612 137.222794 
L 164.918171 137.222794 
z
" style="fill:#1f77b4;"/>
   </g>
   <g id="patch_32">
    <path clip-path="url(#pd9e4000e54)" d="M 168.171222 307.584 
L 170.773664 307.584 
L 170.773664 137.212262 
L 168.171222 137.212262 
z
" style="fill:#1f77b4;"/>
   </g>
   <g id="patch_33">
    <path clip-path="url(#pd9e4000e54)" d="M 171.424274 307.584 
L 174.026715 307.584 
L 174.026715 137.09099 
L 171.424274 137.09099 
z
" style="fill:#1f77b4;"/>
   </g>
   <g id="patch_34">
    <path clip-path="url(#pd9e4000e54)" d="M 174.677326 307.584 
L 177.279767 307.584 
L 177.279767 138.245679 
L 174.677326 138.245679 
z
" style="fill:#1f77b4;"/>
   </g>
   <g id="patch_35">
    <path clip-path="url(#pd9e4000e54)" d="M 177.930377 307.584 
L 180.532818 307.584 
L 180.532818 138.945153 
L 177.930377 138.945153 
z
" style="fill:#1f77b4;"/>
   </g>
   <g id="patch_36">
    <path clip-path="url(#pd9e4000e54)" d="M 181.183429 307.584 
L 183.78587 307.584 
L 183.78587 137.706925 
L 181.183429 137.706925 
z
" style="fill:#1f77b4;"/>
   </g>
   <g id="patch_37">
    <path clip-path="url(#pd9e4000e54)" d="M 184.43648 307.584 
L 187.038921 307.584 
L 187.038921 138.59746 
L 184.43648 138.59746 
z
" style="fill:#1f77b4;"/>
   </g>
   <g id="patch_38">
    <path clip-path="url(#pd9e4000e54)" d="M 187.689532 307.584 
L 190.291973 307.584 
L 190.291973 139.821687 
L 187.689532 139.821687 
z
" style="fill:#1f77b4;"/>
   </g>
   <g id="patch_39">
    <path clip-path="url(#pd9e4000e54)" d="M 190.942583 307.584 
L 193.545025 307.584 
L 193.545025 139.959418 
L 190.942583 139.959418 
z
" style="fill:#1f77b4;"/>
   </g>
   <g id="patch_40">
    <path clip-path="url(#pd9e4000e54)" d="M 194.195635 307.584 
L 196.798076 307.584 
L 196.798076 140.509521 
L 194.195635 140.509521 
z
" style="fill:#1f77b4;"/>
   </g>
   <g id="patch_41">
    <path clip-path="url(#pd9e4000e54)" d="M 197.448686 307.584 
L 200.051128 307.584 
L 200.051128 142.120934 
L 197.448686 142.120934 
z
" style="fill:#1f77b4;"/>
   </g>
   <g id="patch_42">
    <path clip-path="url(#pd9e4000e54)" d="M 200.701738 307.584 
L 203.304179 307.584 
L 203.304179 142.237865 
L 200.701738 142.237865 
z
" style="fill:#1f77b4;"/>
   </g>
   <g id="patch_43">
    <path clip-path="url(#pd9e4000e54)" d="M 203.95479 307.584 
L 206.557231 307.584 
L 206.557231 143.594762 
L 203.95479 143.594762 
z
" style="fill:#1f77b4;"/>
   </g>
   <g id="patch_44">
    <path clip-path="url(#pd9e4000e54)" d="M 207.207841 307.584 
L 209.810282 307.584 
L 209.810282 143.168689 
L 207.207841 143.168689 
z
" style="fill:#1f77b4;"/>
   </g>
   <g id="patch_45">
    <path clip-path="url(#pd9e4000e54)" d="M 210.460893 307.584 
L 213.063334 307.584 
L 213.063334 143.353561 
L 210.460893 143.353561 
z
" style="fill:#1f77b4;"/>
   </g>
   <g id="patch_46">
    <path clip-path="url(#pd9e4000e54)" d="M 213.713944 307.584 
L 216.316385 307.584 
L 216.316385 144.276998 
L 213.713944 144.276998 
z
" style="fill:#1f77b4;"/>
   </g>
   <g id="patch_47">
    <path clip-path="url(#pd9e4000e54)" d="M 216.966996 307.584 
L 219.569437 307.584 
L 219.569437 146.399273 
L 216.966996 146.399273 
z
" style="fill:#1f77b4;"/>
   </g>
   <g id="patch_48">
    <path clip-path="url(#pd9e4000e54)" d="M 220.220047 307.584 
L 222.822489 307.584 
L 222.822489 146.47111 
L 220.220047 146.47111 
z
" style="fill:#1f77b4;"/>
   </g>
   <g id="patch_49">
    <path clip-path="url(#pd9e4000e54)" d="M 223.473099 307.584 
L 226.07554 307.584 
L 226.07554 147.213729 
L 223.473099 147.213729 
z
" style="fill:#1f77b4;"/>
   </g>
   <g id="patch_50">
    <path clip-path="url(#pd9e4000e54)" d="M 226.72615 307.584 
L 229.328592 307.584 
L 229.328592 148.630599 
L 226.72615 148.630599 
z
" style="fill:#1f77b4;"/>
   </g>
   <g id="patch_51">
    <path clip-path="url(#pd9e4000e54)" d="M 229.979202 307.584 
L 232.581643 307.584 
L 232.581643 150.517226 
L 229.979202 150.517226 
z
" style="fill:#1f77b4;"/>
   </g>
   <g id="patch_52">
    <path clip-path="url(#pd9e4000e54)" d="M 233.232254 307.584 
L 235.834695 307.584 
L 235.834695 151.185892 
L 233.232254 151.185892 
z
" style="fill:#1f77b4;"/>
   </g>
   <g id="patch_53">
    <path clip-path="url(#pd9e4000e54)" d="M 236.485305 307.584 
L 239.087746 307.584 
L 239.087746 151.370359 
L 236.485305 151.370359 
z
" style="fill:#1f77b4;"/>
   </g>
   <g id="patch_54">
    <path clip-path="url(#pd9e4000e54)" d="M 239.738357 307.584 
L 242.340798 307.584 
L 242.340798 150.938206 
L 239.738357 150.938206 
z
" style="fill:#1f77b4;"/>
   </g>
   <g id="patch_55">
    <path clip-path="url(#pd9e4000e54)" d="M 242.991408 307.584 
L 245.59385 307.584 
L 245.59385 151.608927 
L 242.991408 151.608927 
z
" style="fill:#1f77b4;"/>
   </g>
   <g id="patch_56">
    <path clip-path="url(#pd9e4000e54)" d="M 246.24446 307.584 
L 248.846901 307.584 
L 248.846901 151.710762 
L 246.24446 151.710762 
z
" style="fill:#1f77b4;"/>
   </g>
   <g id="patch_57">
    <path clip-path="url(#pd9e4000e54)" d="M 249.497511 307.584 
L 252.099953 307.584 
L 252.099953 149.339703 
L 249.497511 149.339703 
z
" style="fill:#1f77b4;"/>
   </g>
   <g id="patch_58">
    <path clip-path="url(#pd9e4000e54)" d="M 252.750563 307.584 
L 255.353004 307.584 
L 255.353004 149.446299 
L 252.750563 149.446299 
z
" style="fill:#1f77b4;"/>
   </g>
   <g id="patch_59">
    <path clip-path="url(#pd9e4000e54)" d="M 256.003615 307.584 
L 258.606056 307.584 
L 258.606056 149.826064 
L 256.003615 149.826064 
z
" style="fill:#1f77b4;"/>
   </g>
   <g id="patch_60">
    <path clip-path="url(#pd9e4000e54)" d="M 259.256666 307.584 
L 261.859107 307.584 
L 261.859107 149.910801 
L 259.256666 149.910801 
z
" style="fill:#1f77b4;"/>
   </g>
   <g id="patch_61">
    <path clip-path="url(#pd9e4000e54)" d="M 262.509718 307.584 
L 265.112159 307.584 
L 265.112159 151.907401 
L 262.509718 151.907401 
z
" style="fill:#1f77b4;"/>
   </g>
   <g id="patch_62">
    <path clip-path="url(#pd9e4000e54)" d="M 265.762769 307.584 
L 268.36521 307.584 
L 268.36521 151.488075 
L 265.762769 151.488075 
z
" style="fill:#1f77b4;"/>
   </g>
   <g id="patch_63">
    <path clip-path="url(#pd9e4000e54)" d="M 269.015821 307.584 
L 271.618262 307.584 
L 271.618262 152.049549 
L 269.015821 152.049549 
z
" style="fill:#1f77b4;"/>
   </g>
   <g id="patch_64">
    <path clip-path="url(#pd9e4000e54)" d="M 272.268872 307.584 
L 274.871314 307.584 
L 274.871314 152.150511 
L 272.268872 152.150511 
z
" style="fill:#1f77b4;"/>
   </g>
   <g id="patch_65">
    <path clip-path="url(#pd9e4000e54)" d="M 275.521924 307.584 
L 278.124365 307.584 
L 278.124365 153.024465 
L 275.521924 153.024465 
z
" style="fill:#1f77b4;"/>
   </g>
   <g id="patch_66">
    <path clip-path="url(#pd9e4000e54)" d="M 278.774975 307.584 
L 281.377417 307.584 
L 281.377417 153.203701 
L 278.774975 153.203701 
z
" style="fill:#1f77b4;"/>
   </g>
   <g id="patch_67">
    <path clip-path="url(#pd9e4000e54)" d="M 282.028027 307.584 
L 284.630468 307.584 
L 284.630468 152.642481 
L 282.028027 152.642481 
z
" style="fill:#1f77b4;"/>
   </g>
   <g id="patch_68">
    <path clip-path="url(#pd9e4000e54)" d="M 285.281079 307.584 
L 287.88352 307.584 
L 287.88352 153.532521 
L 285.281079 153.532521 
z
" style="fill:#1f77b4;"/>
   </g>
   <g id="patch_69">
    <path clip-path="url(#pd9e4000e54)" d="M 288.53413 307.584 
L 291.136571 307.584 
L 291.136571 153.810911 
L 288.53413 153.810911 
z
" style="fill:#1f77b4;"/>
   </g>
   <g id="patch_70">
    <path clip-path="url(#pd9e4000e54)" d="M 291.787182 307.584 
L 294.389623 307.584 
L 294.389623 154.982282 
L 291.787182 154.982282 
z
" style="fill:#1f77b4;"/>
   </g>
   <g id="patch_71">
    <path clip-path="url(#pd9e4000e54)" d="M 295.040233 307.584 
L 297.642674 307.584 
L 297.642674 154.074018 
L 295.040233 154.074018 
z
" style="fill:#1f77b4;"/>
   </g>
   <g id="patch_72">
    <path clip-path="url(#pd9e4000e54)" d="M 298.293285 307.584 
L 300.895726 307.584 
L 300.895726 154.137003 
L 298.293285 154.137003 
z
" style="fill:#1f77b4;"/>
   </g>
   <g id="patch_73">
    <path clip-path="url(#pd9e4000e54)" d="M 301.546336 307.584 
L 304.148778 307.584 
L 304.148778 154.85564 
L 301.546336 154.85564 
z
" style="fill:#1f77b4;"/>
   </g>
   <g id="patch_74">
    <path clip-path="url(#pd9e4000e54)" d="M 304.799388 307.584 
L 307.401829 307.584 
L 307.401829 155.403523 
L 304.799388 155.403523 
z
" style="fill:#1f77b4;"/>
   </g>
   <g id="patch_75">
    <path clip-path="url(#pd9e4000e54)" d="M 308.052439 307.584 
L 310.654881 307.584 
L 310.654881 154.407704 
L 308.052439 154.407704 
z
" style="fill:#1f77b4;"/>
   </g>
   <g id="patch_76">
    <path clip-path="url(#pd9e4000e54)" d="M 311.305491 307.584 
L 313.907932 307.584 
L 313.907932 153.350972 
L 311.305491 153.350972 
z
" style="fill:#1f77b4;"/>
   </g>
   <g id="patch_77">
    <path clip-path="url(#pd9e4000e54)" d="M 314.558543 307.584 
L 317.160984 307.584 
L 317.160984 153.443406 
L 314.558543 153.443406 
z
" style="fill:#1f77b4;"/>
   </g>
   <g id="patch_78">
    <path clip-path="url(#pd9e4000e54)" d="M 317.811594 307.584 
L 320.414035 307.584 
L 320.414035 152.734716 
L 317.811594 152.734716 
z
" style="fill:#1f77b4;"/>
   </g>
   <g id="patch_79">
    <path clip-path="url(#pd9e4000e54)" d="M 321.064646 307.584 
L 323.667087 307.584 
L 323.667087 152.952448 
L 321.064646 152.952448 
z
" style="fill:#1f77b4;"/>
   </g>
   <g id="patch_80">
    <path clip-path="url(#pd9e4000e54)" d="M 324.317697 307.584 
L 326.920138 307.584 
L 326.920138 152.906454 
L 324.317697 152.906454 
z
" style="fill:#1f77b4;"/>
   </g>
   <g id="patch_81">
    <path clip-path="url(#pd9e4000e54)" d="M 327.570749 307.584 
L 330.17319 307.584 
L 330.17319 154.032768 
L 327.570749 154.032768 
z
" style="fill:#1f77b4;"/>
   </g>
   <g id="patch_82">
    <path clip-path="url(#pd9e4000e54)" d="M 330.8238 307.584 
L 333.426242 307.584 
L 333.426242 153.278964 
L 330.8238 153.278964 
z
" style="fill:#1f77b4;"/>
   </g>
   <g id="patch_83">
    <path clip-path="url(#pd9e4000e54)" d="M 334.076852 307.584 
L 336.679293 307.584 
L 336.679293 152.421627 
L 334.076852 152.421627 
z
" style="fill:#1f77b4;"/>
   </g>
   <g id="patch_84">
    <path clip-path="url(#pd9e4000e54)" d="M 337.329903 307.584 
L 339.932345 307.584 
L 339.932345 152.237016 
L 337.329903 152.237016 
z
" style="fill:#1f77b4;"/>
   </g>
   <g id="patch_85">
    <path clip-path="url(#pd9e4000e54)" d="M 340.582955 307.584 
L 343.185396 307.584 
L 343.185396 151.009148 
L 340.582955 151.009148 
z
" style="fill:#1f77b4;"/>
   </g>
   <g id="patch_86">
    <path clip-path="url(#pd9e4000e54)" d="M 343.836007 307.584 
L 346.438448 307.584 
L 346.438448 151.209631 
L 343.836007 151.209631 
z
" style="fill:#1f77b4;"/>
   </g>
   <g id="patch_87">
    <path clip-path="url(#pd9e4000e54)" d="M 347.089058 307.584 
L 349.691499 307.584 
L 349.691499 153.329011 
L 347.089058 153.329011 
z
" style="fill:#1f77b4;"/>
   </g>
   <g id="patch_88">
    <path clip-path="url(#pd9e4000e54)" d="M 350.34211 307.584 
L 352.944551 307.584 
L 352.944551 153.448556 
L 350.34211 153.448556 
z
" style="fill:#1f77b4;"/>
   </g>
   <g id="patch_89">
    <path clip-path="url(#pd9e4000e54)" d="M 353.595161 307.584 
L 356.197602 307.584 
L 356.197602 152.934723 
L 353.595161 152.934723 
z
" style="fill:#1f77b4;"/>
   </g>
   <g id="patch_90">
    <path clip-path="url(#pd9e4000e54)" d="M 356.848213 307.584 
L 359.450654 307.584 
L 359.450654 153.964619 
L 356.848213 153.964619 
z
" style="fill:#1f77b4;"/>
   </g>
   <g id="patch_91">
    <path clip-path="url(#pd9e4000e54)" d="M 360.101264 307.584 
L 362.703706 307.584 
L 362.703706 154.273035 
L 360.101264 154.273035 
z
" style="fill:#1f77b4;"/>
   </g>
   <g id="patch_92">
    <path clip-path="url(#pd9e4000e54)" d="M 363.354316 307.584 
L 365.956757 307.584 
L 365.956757 155.117214 
L 363.354316 155.117214 
z
" style="fill:#1f77b4;"/>
   </g>
   <g id="patch_93">
    <path clip-path="url(#pd9e4000e54)" d="M 366.607367 307.584 
L 369.209809 307.584 
L 369.209809 155.554287 
L 366.607367 155.554287 
z
" style="fill:#1f77b4;"/>
   </g>
   <g id="patch_94">
    <path clip-path="url(#pd9e4000e54)" d="M 369.860419 307.584 
L 372.46286 307.584 
L 372.46286 154.635998 
L 369.860419 154.635998 
z
" style="fill:#1f77b4;"/>
   </g>
   <g id="patch_95">
    <path clip-path="url(#pd9e4000e54)" d="M 373.113471 307.584 
L 375.715912 307.584 
L 375.715912 155.130247 
L 373.113471 155.130247 
z
" style="fill:#1f77b4;"/>
   </g>
   <g id="patch_96">
    <path clip-path="url(#pd9e4000e54)" d="M 376.366522 307.584 
L 378.968963 307.584 
L 378.968963 155.592496 
L 376.366522 155.592496 
z
" style="fill:#1f77b4;"/>
   </g>
   <g id="patch_97">
    <path clip-path="url(#pd9e4000e54)" d="M 379.619574 307.584 
L 382.222015 307.584 
L 382.222015 155.651397 
L 379.619574 155.651397 
z
" style="fill:#1f77b4;"/>
   </g>
   <g id="patch_98">
    <path clip-path="url(#pd9e4000e54)" d="M 382.872625 307.584 
L 385.475066 307.584 
L 385.475066 155.722636 
L 382.872625 155.722636 
z
" style="fill:#1f77b4;"/>
   </g>
   <g id="patch_99">
    <path clip-path="url(#pd9e4000e54)" d="M 386.125677 307.584 
L 388.728118 307.584 
L 388.728118 155.227561 
L 386.125677 155.227561 
z
" style="fill:#1f77b4;"/>
   </g>
   <g id="patch_100">
    <path clip-path="url(#pd9e4000e54)" d="M 389.378728 307.584 
L 391.98117 307.584 
L 391.98117 155.985008 
L 389.378728 155.985008 
z
" style="fill:#1f77b4;"/>
   </g>
   <g id="patch_101">
    <path clip-path="url(#pd9e4000e54)" d="M 392.63178 307.584 
L 395.234221 307.584 
L 395.234221 157.62874 
L 392.63178 157.62874 
z
" style="fill:#1f77b4;"/>
   </g>
   <g id="patch_102">
    <path clip-path="url(#pd9e4000e54)" d="M 395.884831 307.584 
L 398.487273 307.584 
L 398.487273 157.496928 
L 395.884831 157.496928 
z
" style="fill:#1f77b4;"/>
   </g>
   <g id="matplotlib.axis_1">
    <g id="xtick_1">
     <g id="line2d_1">
      <defs>
       <path d="M 0 0 
L 0 3.5 
" id="m181508c79f" style="stroke:#000000;stroke-width:0.8;"/>
      </defs>
      <g>
       <use style="stroke:#000000;stroke-width:0.8;" x="75.133948" xlink:href="#m181508c79f" y="307.584"/>
      </g>
     </g>
     <g id="text_1">
      <!-- 0 -->
      <g transform="translate(71.952698 322.182437)scale(0.1 -0.1)">
       <defs>
        <path d="M 31.78125 66.40625 
Q 24.171875 66.40625 20.328125 58.90625 
Q 16.5 51.421875 16.5 36.375 
Q 16.5 21.390625 20.328125 13.890625 
Q 24.171875 6.390625 31.78125 6.390625 
Q 39.453125 6.390625 43.28125 13.890625 
Q 47.125 21.390625 47.125 36.375 
Q 47.125 51.421875 43.28125 58.90625 
Q 39.453125 66.40625 31.78125 66.40625 
z
M 31.78125 74.21875 
Q 44.046875 74.21875 50.515625 64.515625 
Q 56.984375 54.828125 56.984375 36.375 
Q 56.984375 17.96875 50.515625 8.265625 
Q 44.046875 -1.421875 31.78125 -1.421875 
Q 19.53125 -1.421875 13.0625 8.265625 
Q 6.59375 17.96875 6.59375 36.375 
Q 6.59375 54.828125 13.0625 64.515625 
Q 19.53125 74.21875 31.78125 74.21875 
z
" id="DejaVuSans-48"/>
       </defs>
       <use xlink:href="#DejaVuSans-48"/>
      </g>
     </g>
    </g>
    <g id="xtick_2">
     <g id="line2d_2">
      <g>
       <use style="stroke:#000000;stroke-width:0.8;" x="140.194979" xlink:href="#m181508c79f" y="307.584"/>
      </g>
     </g>
     <g id="text_2">
      <!-- 20 -->
      <g transform="translate(133.832479 322.182437)scale(0.1 -0.1)">
       <defs>
        <path d="M 19.1875 8.296875 
L 53.609375 8.296875 
L 53.609375 0 
L 7.328125 0 
L 7.328125 8.296875 
Q 12.9375 14.109375 22.625 23.890625 
Q 32.328125 33.6875 34.8125 36.53125 
Q 39.546875 41.84375 41.421875 45.53125 
Q 43.3125 49.21875 43.3125 52.78125 
Q 43.3125 58.59375 39.234375 62.25 
Q 35.15625 65.921875 28.609375 65.921875 
Q 23.96875 65.921875 18.8125 64.3125 
Q 13.671875 62.703125 7.8125 59.421875 
L 7.8125 69.390625 
Q 13.765625 71.78125 18.9375 73 
Q 24.125 74.21875 28.421875 74.21875 
Q 39.75 74.21875 46.484375 68.546875 
Q 53.21875 62.890625 53.21875 53.421875 
Q 53.21875 48.921875 51.53125 44.890625 
Q 49.859375 40.875 45.40625 35.40625 
Q 44.1875 33.984375 37.640625 27.21875 
Q 31.109375 20.453125 19.1875 8.296875 
z
" id="DejaVuSans-50"/>
       </defs>
       <use xlink:href="#DejaVuSans-50"/>
       <use x="63.623047" xlink:href="#DejaVuSans-48"/>
      </g>
     </g>
    </g>
    <g id="xtick_3">
     <g id="line2d_3">
      <g>
       <use style="stroke:#000000;stroke-width:0.8;" x="205.25601" xlink:href="#m181508c79f" y="307.584"/>
      </g>
     </g>
     <g id="text_3">
      <!-- 40 -->
      <g transform="translate(198.89351 322.182437)scale(0.1 -0.1)">
       <defs>
        <path d="M 37.796875 64.3125 
L 12.890625 25.390625 
L 37.796875 25.390625 
z
M 35.203125 72.90625 
L 47.609375 72.90625 
L 47.609375 25.390625 
L 58.015625 25.390625 
L 58.015625 17.1875 
L 47.609375 17.1875 
L 47.609375 0 
L 37.796875 0 
L 37.796875 17.1875 
L 4.890625 17.1875 
L 4.890625 26.703125 
z
" id="DejaVuSans-52"/>
       </defs>
       <use xlink:href="#DejaVuSans-52"/>
       <use x="63.623047" xlink:href="#DejaVuSans-48"/>
      </g>
     </g>
    </g>
    <g id="xtick_4">
     <g id="line2d_4">
      <g>
       <use style="stroke:#000000;stroke-width:0.8;" x="270.317041" xlink:href="#m181508c79f" y="307.584"/>
      </g>
     </g>
     <g id="text_4">
      <!-- 60 -->
      <g transform="translate(263.954541 322.182437)scale(0.1 -0.1)">
       <defs>
        <path d="M 33.015625 40.375 
Q 26.375 40.375 22.484375 35.828125 
Q 18.609375 31.296875 18.609375 23.390625 
Q 18.609375 15.53125 22.484375 10.953125 
Q 26.375 6.390625 33.015625 6.390625 
Q 39.65625 6.390625 43.53125 10.953125 
Q 47.40625 15.53125 47.40625 23.390625 
Q 47.40625 31.296875 43.53125 35.828125 
Q 39.65625 40.375 33.015625 40.375 
z
M 52.59375 71.296875 
L 52.59375 62.3125 
Q 48.875 64.0625 45.09375 64.984375 
Q 41.3125 65.921875 37.59375 65.921875 
Q 27.828125 65.921875 22.671875 59.328125 
Q 17.53125 52.734375 16.796875 39.40625 
Q 19.671875 43.65625 24.015625 45.921875 
Q 28.375 48.1875 33.59375 48.1875 
Q 44.578125 48.1875 50.953125 41.515625 
Q 57.328125 34.859375 57.328125 23.390625 
Q 57.328125 12.15625 50.6875 5.359375 
Q 44.046875 -1.421875 33.015625 -1.421875 
Q 20.359375 -1.421875 13.671875 8.265625 
Q 6.984375 17.96875 6.984375 36.375 
Q 6.984375 53.65625 15.1875 63.9375 
Q 23.390625 74.21875 37.203125 74.21875 
Q 40.921875 74.21875 44.703125 73.484375 
Q 48.484375 72.75 52.59375 71.296875 
z
" id="DejaVuSans-54"/>
       </defs>
       <use xlink:href="#DejaVuSans-54"/>
       <use x="63.623047" xlink:href="#DejaVuSans-48"/>
      </g>
     </g>
    </g>
    <g id="xtick_5">
     <g id="line2d_5">
      <g>
       <use style="stroke:#000000;stroke-width:0.8;" x="335.378073" xlink:href="#m181508c79f" y="307.584"/>
      </g>
     </g>
     <g id="text_5">
      <!-- 80 -->
      <g transform="translate(329.015573 322.182437)scale(0.1 -0.1)">
       <defs>
        <path d="M 31.78125 34.625 
Q 24.75 34.625 20.71875 30.859375 
Q 16.703125 27.09375 16.703125 20.515625 
Q 16.703125 13.921875 20.71875 10.15625 
Q 24.75 6.390625 31.78125 6.390625 
Q 38.8125 6.390625 42.859375 10.171875 
Q 46.921875 13.96875 46.921875 20.515625 
Q 46.921875 27.09375 42.890625 30.859375 
Q 38.875 34.625 31.78125 34.625 
z
M 21.921875 38.8125 
Q 15.578125 40.375 12.03125 44.71875 
Q 8.5 49.078125 8.5 55.328125 
Q 8.5 64.0625 14.71875 69.140625 
Q 20.953125 74.21875 31.78125 74.21875 
Q 42.671875 74.21875 48.875 69.140625 
Q 55.078125 64.0625 55.078125 55.328125 
Q 55.078125 49.078125 51.53125 44.71875 
Q 48 40.375 41.703125 38.8125 
Q 48.828125 37.15625 52.796875 32.3125 
Q 56.78125 27.484375 56.78125 20.515625 
Q 56.78125 9.90625 50.3125 4.234375 
Q 43.84375 -1.421875 31.78125 -1.421875 
Q 19.734375 -1.421875 13.25 4.234375 
Q 6.78125 9.90625 6.78125 20.515625 
Q 6.78125 27.484375 10.78125 32.3125 
Q 14.796875 37.15625 21.921875 38.8125 
z
M 18.3125 54.390625 
Q 18.3125 48.734375 21.84375 45.5625 
Q 25.390625 42.390625 31.78125 42.390625 
Q 38.140625 42.390625 41.71875 45.5625 
Q 45.3125 48.734375 45.3125 54.390625 
Q 45.3125 60.0625 41.71875 63.234375 
Q 38.140625 66.40625 31.78125 66.40625 
Q 25.390625 66.40625 21.84375 63.234375 
Q 18.3125 60.0625 18.3125 54.390625 
z
" id="DejaVuSans-56"/>
       </defs>
       <use xlink:href="#DejaVuSans-56"/>
       <use x="63.623047" xlink:href="#DejaVuSans-48"/>
      </g>
     </g>
    </g>
    <g id="xtick_6">
     <g id="line2d_6">
      <g>
       <use style="stroke:#000000;stroke-width:0.8;" x="400.439104" xlink:href="#m181508c79f" y="307.584"/>
      </g>
     </g>
     <g id="text_6">
      <!-- 100 -->
      <g transform="translate(390.895354 322.182437)scale(0.1 -0.1)">
       <defs>
        <path d="M 12.40625 8.296875 
L 28.515625 8.296875 
L 28.515625 63.921875 
L 10.984375 60.40625 
L 10.984375 69.390625 
L 28.421875 72.90625 
L 38.28125 72.90625 
L 38.28125 8.296875 
L 54.390625 8.296875 
L 54.390625 0 
L 12.40625 0 
z
" id="DejaVuSans-49"/>
       </defs>
       <use xlink:href="#DejaVuSans-49"/>
       <use x="63.623047" xlink:href="#DejaVuSans-48"/>
       <use x="127.246094" xlink:href="#DejaVuSans-48"/>
      </g>
     </g>
    </g>
   </g>
   <g id="matplotlib.axis_2">
    <g id="ytick_1">
     <g id="line2d_7">
      <defs>
       <path d="M 0 0 
L -3.5 0 
" id="mc8b23cd307" style="stroke:#000000;stroke-width:0.8;"/>
      </defs>
      <g>
       <use style="stroke:#000000;stroke-width:0.8;" x="57.6" xlink:href="#mc8b23cd307" y="307.584"/>
      </g>
     </g>
     <g id="text_7">
      <!-- 0 -->
      <g transform="translate(44.2375 311.383219)scale(0.1 -0.1)">
       <use xlink:href="#DejaVuSans-48"/>
      </g>
     </g>
    </g>
    <g id="ytick_2">
     <g id="line2d_8">
      <g>
       <use style="stroke:#000000;stroke-width:0.8;" x="57.6" xlink:href="#mc8b23cd307" y="274.32"/>
      </g>
     </g>
     <g id="text_8">
      <!-- 20 -->
      <g transform="translate(37.875 278.119219)scale(0.1 -0.1)">
       <use xlink:href="#DejaVuSans-50"/>
       <use x="63.623047" xlink:href="#DejaVuSans-48"/>
      </g>
     </g>
    </g>
    <g id="ytick_3">
     <g id="line2d_9">
      <g>
       <use style="stroke:#000000;stroke-width:0.8;" x="57.6" xlink:href="#mc8b23cd307" y="241.056"/>
      </g>
     </g>
     <g id="text_9">
      <!-- 40 -->
      <g transform="translate(37.875 244.855219)scale(0.1 -0.1)">
       <use xlink:href="#DejaVuSans-52"/>
       <use x="63.623047" xlink:href="#DejaVuSans-48"/>
      </g>
     </g>
    </g>
    <g id="ytick_4">
     <g id="line2d_10">
      <g>
       <use style="stroke:#000000;stroke-width:0.8;" x="57.6" xlink:href="#mc8b23cd307" y="207.792"/>
      </g>
     </g>
     <g id="text_10">
      <!-- 60 -->
      <g transform="translate(37.875 211.591219)scale(0.1 -0.1)">
       <use xlink:href="#DejaVuSans-54"/>
       <use x="63.623047" xlink:href="#DejaVuSans-48"/>
      </g>
     </g>
    </g>
    <g id="ytick_5">
     <g id="line2d_11">
      <g>
       <use style="stroke:#000000;stroke-width:0.8;" x="57.6" xlink:href="#mc8b23cd307" y="174.528"/>
      </g>
     </g>
     <g id="text_11">
      <!-- 80 -->
      <g transform="translate(37.875 178.327219)scale(0.1 -0.1)">
       <use xlink:href="#DejaVuSans-56"/>
       <use x="63.623047" xlink:href="#DejaVuSans-48"/>
      </g>
     </g>
    </g>
    <g id="ytick_6">
     <g id="line2d_12">
      <g>
       <use style="stroke:#000000;stroke-width:0.8;" x="57.6" xlink:href="#mc8b23cd307" y="141.264"/>
      </g>
     </g>
     <g id="text_12">
      <!-- 100 -->
      <g transform="translate(31.5125 145.063219)scale(0.1 -0.1)">
       <use xlink:href="#DejaVuSans-49"/>
       <use x="63.623047" xlink:href="#DejaVuSans-48"/>
       <use x="127.246094" xlink:href="#DejaVuSans-48"/>
      </g>
     </g>
    </g>
    <g id="ytick_7">
     <g id="line2d_13">
      <g>
       <use style="stroke:#000000;stroke-width:0.8;" x="57.6" xlink:href="#mc8b23cd307" y="108"/>
      </g>
     </g>
     <g id="text_13">
      <!-- 120 -->
      <g transform="translate(31.5125 111.799219)scale(0.1 -0.1)">
       <use xlink:href="#DejaVuSans-49"/>
       <use x="63.623047" xlink:href="#DejaVuSans-50"/>
       <use x="127.246094" xlink:href="#DejaVuSans-48"/>
      </g>
     </g>
    </g>
    <g id="ytick_8">
     <g id="line2d_14">
      <g>
       <use style="stroke:#000000;stroke-width:0.8;" x="57.6" xlink:href="#mc8b23cd307" y="74.736"/>
      </g>
     </g>
     <g id="text_14">
      <!-- 140 -->
      <g transform="translate(31.5125 78.535219)scale(0.1 -0.1)">
       <use xlink:href="#DejaVuSans-49"/>
       <use x="63.623047" xlink:href="#DejaVuSans-52"/>
       <use x="127.246094" xlink:href="#DejaVuSans-48"/>
      </g>
     </g>
    </g>
    <g id="ytick_9">
     <g id="line2d_15">
      <g>
       <use style="stroke:#000000;stroke-width:0.8;" x="57.6" xlink:href="#mc8b23cd307" y="41.472"/>
      </g>
     </g>
     <g id="text_15">
      <!-- 160 -->
      <g transform="translate(31.5125 45.271219)scale(0.1 -0.1)">
       <use xlink:href="#DejaVuSans-49"/>
       <use x="63.623047" xlink:href="#DejaVuSans-54"/>
       <use x="127.246094" xlink:href="#DejaVuSans-48"/>
      </g>
     </g>
    </g>
   </g>
   <g id="patch_103">
    <path d="M 57.6 307.584 
L 57.6 41.472 
" style="fill:none;stroke:#000000;stroke-linecap:square;stroke-linejoin:miter;stroke-width:0.8;"/>
   </g>
   <g id="patch_104">
    <path d="M 414.72 307.584 
L 414.72 41.472 
" style="fill:none;stroke:#000000;stroke-linecap:square;stroke-linejoin:miter;stroke-width:0.8;"/>
   </g>
   <g id="patch_105">
    <path d="M 57.6 307.584 
L 414.72 307.584 
" style="fill:none;stroke:#000000;stroke-linecap:square;stroke-linejoin:miter;stroke-width:0.8;"/>
   </g>
   <g id="patch_106">
    <path d="M 57.6 41.472 
L 414.72 41.472 
" style="fill:none;stroke:#000000;stroke-linecap:square;stroke-linejoin:miter;stroke-width:0.8;"/>
   </g>
  </g>
 </g>
 <defs>
  <clipPath id="pd9e4000e54">
   <rect height="266.112" width="357.12" x="57.6" y="41.472"/>
  </clipPath>
 </defs>
</svg>
