<?xml version="1.0" encoding="utf-8" standalone="no"?>
<!DOCTYPE svg PUBLIC "-//W3C//DTD SVG 1.1//EN"
  "http://www.w3.org/Graphics/SVG/1.1/DTD/svg11.dtd">
<!-- Created with matplotlib (https://matplotlib.org/) -->
<svg height="345.6pt" version="1.1" viewBox="0 0 460.8 345.6" width="460.8pt" xmlns="http://www.w3.org/2000/svg" xmlns:xlink="http://www.w3.org/1999/xlink">
 <metadata>
  <rdf:RDF xmlns:cc="http://creativecommons.org/ns#" xmlns:dc="http://purl.org/dc/elements/1.1/" xmlns:rdf="http://www.w3.org/1999/02/22-rdf-syntax-ns#">
   <cc:Work>
    <dc:type rdf:resource="http://purl.org/dc/dcmitype/StillImage"/>
    <dc:date>2020-12-11T19:58:01.723943</dc:date>
    <dc:format>image/svg+xml</dc:format>
    <dc:creator>
     <cc:Agent>
      <dc:title>Matplotlib v3.3.3, https://matplotlib.org/</dc:title>
     </cc:Agent>
    </dc:creator>
   </cc:Work>
  </rdf:RDF>
 </metadata>
 <defs>
  <style type="text/css">*{stroke-linecap:butt;stroke-linejoin:round;}</style>
 </defs>
 <g id="figure_1">
  <g id="patch_1">
   <path d="M 0 345.6 
L 460.8 345.6 
L 460.8 0 
L 0 0 
z
" style="fill:#ffffff;"/>
  </g>
  <g id="axes_1">
   <g id="patch_2">
    <path d="M 57.6 307.584 
L 414.72 307.584 
L 414.72 41.472 
L 57.6 41.472 
z
" style="fill:#ffffff;"/>
   </g>
   <g id="patch_3">
    <path clip-path="url(#p3bfefd0f17)" d="M 73.832727 307.584 
L 76.435169 307.584 
L 76.435169 108.153233 
L 73.832727 108.153233 
z
" style="fill:#1f77b4;"/>
   </g>
   <g id="patch_4">
    <path clip-path="url(#p3bfefd0f17)" d="M 77.085779 307.584 
L 79.68822 307.584 
L 79.68822 113.25639 
L 77.085779 113.25639 
z
" style="fill:#1f77b4;"/>
   </g>
   <g id="patch_5">
    <path clip-path="url(#p3bfefd0f17)" d="M 80.33883 307.584 
L 82.941272 307.584 
L 82.941272 118.629762 
L 80.33883 118.629762 
z
" style="fill:#1f77b4;"/>
   </g>
   <g id="patch_6">
    <path clip-path="url(#p3bfefd0f17)" d="M 83.591882 307.584 
L 86.194323 307.584 
L 86.194323 123.552466 
L 83.591882 123.552466 
z
" style="fill:#1f77b4;"/>
   </g>
   <g id="patch_7">
    <path clip-path="url(#p3bfefd0f17)" d="M 86.844934 307.584 
L 89.447375 307.584 
L 89.447375 127.547307 
L 86.844934 127.547307 
z
" style="fill:#1f77b4;"/>
   </g>
   <g id="patch_8">
    <path clip-path="url(#p3bfefd0f17)" d="M 90.097985 307.584 
L 92.700426 307.584 
L 92.700426 128.676595 
L 90.097985 128.676595 
z
" style="fill:#1f77b4;"/>
   </g>
   <g id="patch_9">
    <path clip-path="url(#p3bfefd0f17)" d="M 93.351037 307.584 
L 95.953478 307.584 
L 95.953478 134.517968 
L 93.351037 134.517968 
z
" style="fill:#1f77b4;"/>
   </g>
   <g id="patch_10">
    <path clip-path="url(#p3bfefd0f17)" d="M 96.604088 307.584 
L 99.206529 307.584 
L 99.206529 142.671218 
L 96.604088 142.671218 
z
" style="fill:#1f77b4;"/>
   </g>
   <g id="patch_11">
    <path clip-path="url(#p3bfefd0f17)" d="M 99.85714 307.584 
L 102.459581 307.584 
L 102.459581 161.830691 
L 99.85714 161.830691 
z
" style="fill:#1f77b4;"/>
   </g>
   <g id="patch_12">
    <path clip-path="url(#p3bfefd0f17)" d="M 103.110191 307.584 
L 105.712633 307.584 
L 105.712633 175.698308 
L 103.110191 175.698308 
z
" style="fill:#1f77b4;"/>
   </g>
   <g id="patch_13">
    <path clip-path="url(#p3bfefd0f17)" d="M 106.363243 307.584 
L 108.965684 307.584 
L 108.965684 181.488977 
L 106.363243 181.488977 
z
" style="fill:#1f77b4;"/>
   </g>
   <g id="patch_14">
    <path clip-path="url(#p3bfefd0f17)" d="M 109.616294 307.584 
L 112.218736 307.584 
L 112.218736 194.518835 
L 109.616294 194.518835 
z
" style="fill:#1f77b4;"/>
   </g>
   <g id="patch_15">
    <path clip-path="url(#p3bfefd0f17)" d="M 112.869346 307.584 
L 115.471787 307.584 
L 115.471787 200.227753 
L 112.869346 200.227753 
z
" style="fill:#1f77b4;"/>
   </g>
   <g id="patch_16">
    <path clip-path="url(#p3bfefd0f17)" d="M 116.122398 307.584 
L 118.724839 307.584 
L 118.724839 198.312553 
L 116.122398 198.312553 
z
" style="fill:#1f77b4;"/>
   </g>
   <g id="patch_17">
    <path clip-path="url(#p3bfefd0f17)" d="M 119.375449 307.584 
L 121.97789 307.584 
L 121.97789 196.945249 
L 119.375449 196.945249 
z
" style="fill:#1f77b4;"/>
   </g>
   <g id="patch_18">
    <path clip-path="url(#p3bfefd0f17)" d="M 122.628501 307.584 
L 125.230942 307.584 
L 125.230942 197.050797 
L 122.628501 197.050797 
z
" style="fill:#1f77b4;"/>
   </g>
   <g id="patch_19">
    <path clip-path="url(#p3bfefd0f17)" d="M 125.881552 307.584 
L 128.483993 307.584 
L 128.483993 196.416653 
L 125.881552 196.416653 
z
" style="fill:#1f77b4;"/>
   </g>
   <g id="patch_20">
    <path clip-path="url(#p3bfefd0f17)" d="M 129.134604 307.584 
L 131.737045 307.584 
L 131.737045 196.618626 
L 129.134604 196.618626 
z
" style="fill:#1f77b4;"/>
   </g>
   <g id="patch_21">
    <path clip-path="url(#p3bfefd0f17)" d="M 132.387655 307.584 
L 134.990097 307.584 
L 134.990097 197.558098 
L 132.387655 197.558098 
z
" style="fill:#1f77b4;"/>
   </g>
   <g id="patch_22">
    <path clip-path="url(#p3bfefd0f17)" d="M 135.640707 307.584 
L 138.243148 307.584 
L 138.243148 197.622664 
L 135.640707 197.622664 
z
" style="fill:#1f77b4;"/>
   </g>
   <g id="patch_23">
    <path clip-path="url(#p3bfefd0f17)" d="M 138.893758 307.584 
L 141.4962 307.584 
L 141.4962 196.394108 
L 138.893758 196.394108 
z
" style="fill:#1f77b4;"/>
   </g>
   <g id="patch_24">
    <path clip-path="url(#p3bfefd0f17)" d="M 142.14681 307.584 
L 144.749251 307.584 
L 144.749251 197.126481 
L 142.14681 197.126481 
z
" style="fill:#1f77b4;"/>
   </g>
   <g id="patch_25">
    <path clip-path="url(#p3bfefd0f17)" d="M 145.399862 307.584 
L 148.002303 307.584 
L 148.002303 198.147977 
L 145.399862 198.147977 
z
" style="fill:#1f77b4;"/>
   </g>
   <g id="patch_26">
    <path clip-path="url(#p3bfefd0f17)" d="M 148.652913 307.584 
L 151.255354 307.584 
L 151.255354 199.293544 
L 148.652913 199.293544 
z
" style="fill:#1f77b4;"/>
   </g>
   <g id="patch_27">
    <path clip-path="url(#p3bfefd0f17)" d="M 151.905965 307.584 
L 154.508406 307.584 
L 154.508406 196.674456 
L 151.905965 196.674456 
z
" style="fill:#1f77b4;"/>
   </g>
   <g id="patch_28">
    <path clip-path="url(#p3bfefd0f17)" d="M 155.159016 307.584 
L 157.761457 307.584 
L 157.761457 196.402906 
L 155.159016 196.402906 
z
" style="fill:#1f77b4;"/>
   </g>
   <g id="patch_29">
    <path clip-path="url(#p3bfefd0f17)" d="M 158.412068 307.584 
L 161.014509 307.584 
L 161.014509 197.694049 
L 158.412068 197.694049 
z
" style="fill:#1f77b4;"/>
   </g>
   <g id="patch_30">
    <path clip-path="url(#p3bfefd0f17)" d="M 161.665119 307.584 
L 164.267561 307.584 
L 164.267561 199.258113 
L 161.665119 199.258113 
z
" style="fill:#1f77b4;"/>
   </g>
   <g id="patch_31">
    <path clip-path="url(#p3bfefd0f17)" d="M 164.918171 307.584 
L 167.520612 307.584 
L 167.520612 201.490914 
L 164.918171 201.490914 
z
" style="fill:#1f77b4;"/>
   </g>
   <g id="patch_32">
    <path clip-path="url(#p3bfefd0f17)" d="M 168.171222 307.584 
L 170.773664 307.584 
L 170.773664 204.983639 
L 168.171222 204.983639 
z
" style="fill:#1f77b4;"/>
   </g>
   <g id="patch_33">
    <path clip-path="url(#p3bfefd0f17)" d="M 171.424274 307.584 
L 174.026715 307.584 
L 174.026715 207.527331 
L 171.424274 207.527331 
z
" style="fill:#1f77b4;"/>
   </g>
   <g id="patch_34">
    <path clip-path="url(#p3bfefd0f17)" d="M 174.677326 307.584 
L 177.279767 307.584 
L 177.279767 208.791015 
L 174.677326 208.791015 
z
" style="fill:#1f77b4;"/>
   </g>
   <g id="patch_35">
    <path clip-path="url(#p3bfefd0f17)" d="M 177.930377 307.584 
L 180.532818 307.584 
L 180.532818 206.151331 
L 177.930377 206.151331 
z
" style="fill:#1f77b4;"/>
   </g>
   <g id="patch_36">
    <path clip-path="url(#p3bfefd0f17)" d="M 181.183429 307.584 
L 183.78587 307.584 
L 183.78587 207.138658 
L 181.183429 207.138658 
z
" style="fill:#1f77b4;"/>
   </g>
   <g id="patch_37">
    <path clip-path="url(#p3bfefd0f17)" d="M 184.43648 307.584 
L 187.038921 307.584 
L 187.038921 207.075561 
L 184.43648 207.075561 
z
" style="fill:#1f77b4;"/>
   </g>
   <g id="patch_38">
    <path clip-path="url(#p3bfefd0f17)" d="M 187.689532 307.584 
L 190.291973 307.584 
L 190.291973 207.372387 
L 187.689532 207.372387 
z
" style="fill:#1f77b4;"/>
   </g>
   <g id="patch_39">
    <path clip-path="url(#p3bfefd0f17)" d="M 190.942583 307.584 
L 193.545025 307.584 
L 193.545025 208.382516 
L 190.942583 208.382516 
z
" style="fill:#1f77b4;"/>
   </g>
   <g id="patch_40">
    <path clip-path="url(#p3bfefd0f17)" d="M 194.195635 307.584 
L 196.798076 307.584 
L 196.798076 207.22875 
L 194.195635 207.22875 
z
" style="fill:#1f77b4;"/>
   </g>
   <g id="patch_41">
    <path clip-path="url(#p3bfefd0f17)" d="M 197.448686 307.584 
L 200.051128 307.584 
L 200.051128 207.557009 
L 197.448686 207.557009 
z
" style="fill:#1f77b4;"/>
   </g>
   <g id="patch_42">
    <path clip-path="url(#p3bfefd0f17)" d="M 200.701738 307.584 
L 203.304179 307.584 
L 203.304179 207.352278 
L 200.701738 207.352278 
z
" style="fill:#1f77b4;"/>
   </g>
   <g id="patch_43">
    <path clip-path="url(#p3bfefd0f17)" d="M 203.95479 307.584 
L 206.557231 307.584 
L 206.557231 208.431506 
L 203.95479 208.431506 
z
" style="fill:#1f77b4;"/>
   </g>
   <g id="patch_44">
    <path clip-path="url(#p3bfefd0f17)" d="M 207.207841 307.584 
L 209.810282 307.584 
L 209.810282 209.157408 
L 207.207841 209.157408 
z
" style="fill:#1f77b4;"/>
   </g>
   <g id="patch_45">
    <path clip-path="url(#p3bfefd0f17)" d="M 210.460893 307.584 
L 213.063334 307.584 
L 213.063334 210.104777 
L 210.460893 210.104777 
z
" style="fill:#1f77b4;"/>
   </g>
   <g id="patch_46">
    <path clip-path="url(#p3bfefd0f17)" d="M 213.713944 307.584 
L 216.316385 307.584 
L 216.316385 209.336061 
L 213.713944 209.336061 
z
" style="fill:#1f77b4;"/>
   </g>
   <g id="patch_47">
    <path clip-path="url(#p3bfefd0f17)" d="M 216.966996 307.584 
L 219.569437 307.584 
L 219.569437 209.982278 
L 216.966996 209.982278 
z
" style="fill:#1f77b4;"/>
   </g>
   <g id="patch_48">
    <path clip-path="url(#p3bfefd0f17)" d="M 220.220047 307.584 
L 222.822489 307.584 
L 222.822489 208.885879 
L 220.220047 208.885879 
z
" style="fill:#1f77b4;"/>
   </g>
   <g id="patch_49">
    <path clip-path="url(#p3bfefd0f17)" d="M 223.473099 307.584 
L 226.07554 307.584 
L 226.07554 209.486855 
L 223.473099 209.486855 
z
" style="fill:#1f77b4;"/>
   </g>
   <g id="patch_50">
    <path clip-path="url(#p3bfefd0f17)" d="M 226.72615 307.584 
L 229.328592 307.584 
L 229.328592 209.702499 
L 226.72615 209.702499 
z
" style="fill:#1f77b4;"/>
   </g>
   <g id="patch_51">
    <path clip-path="url(#p3bfefd0f17)" d="M 229.979202 307.584 
L 232.581643 307.584 
L 232.581643 210.447311 
L 229.979202 210.447311 
z
" style="fill:#1f77b4;"/>
   </g>
   <g id="patch_52">
    <path clip-path="url(#p3bfefd0f17)" d="M 233.232254 307.584 
L 235.834695 307.584 
L 235.834695 211.504382 
L 233.232254 211.504382 
z
" style="fill:#1f77b4;"/>
   </g>
   <g id="patch_53">
    <path clip-path="url(#p3bfefd0f17)" d="M 236.485305 307.584 
L 239.087746 307.584 
L 239.087746 211.490955 
L 236.485305 211.490955 
z
" style="fill:#1f77b4;"/>
   </g>
   <g id="patch_54">
    <path clip-path="url(#p3bfefd0f17)" d="M 239.738357 307.584 
L 242.340798 307.584 
L 242.340798 211.519174 
L 239.738357 211.519174 
z
" style="fill:#1f77b4;"/>
   </g>
   <g id="patch_55">
    <path clip-path="url(#p3bfefd0f17)" d="M 242.991408 307.584 
L 245.59385 307.584 
L 245.59385 211.288042 
L 242.991408 211.288042 
z
" style="fill:#1f77b4;"/>
   </g>
   <g id="patch_56">
    <path clip-path="url(#p3bfefd0f17)" d="M 246.24446 307.584 
L 248.846901 307.584 
L 248.846901 210.57786 
L 246.24446 210.57786 
z
" style="fill:#1f77b4;"/>
   </g>
   <g id="patch_57">
    <path clip-path="url(#p3bfefd0f17)" d="M 249.497511 307.584 
L 252.099953 307.584 
L 252.099953 208.793669 
L 249.497511 208.793669 
z
" style="fill:#1f77b4;"/>
   </g>
   <g id="patch_58">
    <path clip-path="url(#p3bfefd0f17)" d="M 252.750563 307.584 
L 255.353004 307.584 
L 255.353004 207.78999 
L 252.750563 207.78999 
z
" style="fill:#1f77b4;"/>
   </g>
   <g id="patch_59">
    <path clip-path="url(#p3bfefd0f17)" d="M 256.003615 307.584 
L 258.606056 307.584 
L 258.606056 208.877863 
L 256.003615 208.877863 
z
" style="fill:#1f77b4;"/>
   </g>
   <g id="patch_60">
    <path clip-path="url(#p3bfefd0f17)" d="M 259.256666 307.584 
L 261.859107 307.584 
L 261.859107 209.117057 
L 259.256666 209.117057 
z
" style="fill:#1f77b4;"/>
   </g>
   <g id="patch_61">
    <path clip-path="url(#p3bfefd0f17)" d="M 262.509718 307.584 
L 265.112159 307.584 
L 265.112159 210.191448 
L 262.509718 210.191448 
z
" style="fill:#1f77b4;"/>
   </g>
   <g id="patch_62">
    <path clip-path="url(#p3bfefd0f17)" d="M 265.762769 307.584 
L 268.36521 307.584 
L 268.36521 211.259971 
L 265.762769 211.259971 
z
" style="fill:#1f77b4;"/>
   </g>
   <g id="patch_63">
    <path clip-path="url(#p3bfefd0f17)" d="M 269.015821 307.584 
L 271.618262 307.584 
L 271.618262 212.612787 
L 269.015821 212.612787 
z
" style="fill:#1f77b4;"/>
   </g>
   <g id="patch_64">
    <path clip-path="url(#p3bfefd0f17)" d="M 272.268872 307.584 
L 274.871314 307.584 
L 274.871314 212.399588 
L 272.268872 212.399588 
z
" style="fill:#1f77b4;"/>
   </g>
   <g id="patch_65">
    <path clip-path="url(#p3bfefd0f17)" d="M 275.521924 307.584 
L 278.124365 307.584 
L 278.124365 212.387324 
L 275.521924 212.387324 
z
" style="fill:#1f77b4;"/>
   </g>
   <g id="patch_66">
    <path clip-path="url(#p3bfefd0f17)" d="M 278.774975 307.584 
L 281.377417 307.584 
L 281.377417 211.905808 
L 278.774975 211.905808 
z
" style="fill:#1f77b4;"/>
   </g>
   <g id="patch_67">
    <path clip-path="url(#p3bfefd0f17)" d="M 282.028027 307.584 
L 284.630468 307.584 
L 284.630468 211.080305 
L 282.028027 211.080305 
z
" style="fill:#1f77b4;"/>
   </g>
   <g id="patch_68">
    <path clip-path="url(#p3bfefd0f17)" d="M 285.281079 307.584 
L 287.88352 307.584 
L 287.88352 211.531994 
L 285.281079 211.531994 
z
" style="fill:#1f77b4;"/>
   </g>
   <g id="patch_69">
    <path clip-path="url(#p3bfefd0f17)" d="M 288.53413 307.584 
L 291.136571 307.584 
L 291.136571 212.395811 
L 288.53413 212.395811 
z
" style="fill:#1f77b4;"/>
   </g>
   <g id="patch_70">
    <path clip-path="url(#p3bfefd0f17)" d="M 291.787182 307.584 
L 294.389623 307.584 
L 294.389623 211.954561 
L 291.787182 211.954561 
z
" style="fill:#1f77b4;"/>
   </g>
   <g id="patch_71">
    <path clip-path="url(#p3bfefd0f17)" d="M 295.040233 307.584 
L 297.642674 307.584 
L 297.642674 212.727843 
L 295.040233 212.727843 
z
" style="fill:#1f77b4;"/>
   </g>
   <g id="patch_72">
    <path clip-path="url(#p3bfefd0f17)" d="M 298.293285 307.584 
L 300.895726 307.584 
L 300.895726 213.832046 
L 298.293285 213.832046 
z
" style="fill:#1f77b4;"/>
   </g>
   <g id="patch_73">
    <path clip-path="url(#p3bfefd0f17)" d="M 301.546336 307.584 
L 304.148778 307.584 
L 304.148778 214.353837 
L 301.546336 214.353837 
z
" style="fill:#1f77b4;"/>
   </g>
   <g id="patch_74">
    <path clip-path="url(#p3bfefd0f17)" d="M 304.799388 307.584 
L 307.401829 307.584 
L 307.401829 214.455727 
L 304.799388 214.455727 
z
" style="fill:#1f77b4;"/>
   </g>
   <g id="patch_75">
    <path clip-path="url(#p3bfefd0f17)" d="M 308.052439 307.584 
L 310.654881 307.584 
L 310.654881 214.022941 
L 308.052439 214.022941 
z
" style="fill:#1f77b4;"/>
   </g>
   <g id="patch_76">
    <path clip-path="url(#p3bfefd0f17)" d="M 311.305491 307.584 
L 313.907932 307.584 
L 313.907932 214.107558 
L 311.305491 214.107558 
z
" style="fill:#1f77b4;"/>
   </g>
   <g id="patch_77">
    <path clip-path="url(#p3bfefd0f17)" d="M 314.558543 307.584 
L 317.160984 307.584 
L 317.160984 214.073675 
L 314.558543 214.073675 
z
" style="fill:#1f77b4;"/>
   </g>
   <g id="patch_78">
    <path clip-path="url(#p3bfefd0f17)" d="M 317.811594 307.584 
L 320.414035 307.584 
L 320.414035 215.053269 
L 317.811594 215.053269 
z
" style="fill:#1f77b4;"/>
   </g>
   <g id="patch_79">
    <path clip-path="url(#p3bfefd0f17)" d="M 321.064646 307.584 
L 323.667087 307.584 
L 323.667087 215.138263 
L 321.064646 215.138263 
z
" style="fill:#1f77b4;"/>
   </g>
   <g id="patch_80">
    <path clip-path="url(#p3bfefd0f17)" d="M 324.317697 307.584 
L 326.920138 307.584 
L 326.920138 215.86109 
L 324.317697 215.86109 
z
" style="fill:#1f77b4;"/>
   </g>
   <g id="patch_81">
    <path clip-path="url(#p3bfefd0f17)" d="M 327.570749 307.584 
L 330.17319 307.584 
L 330.17319 216.974795 
L 327.570749 216.974795 
z
" style="fill:#1f77b4;"/>
   </g>
   <g id="patch_82">
    <path clip-path="url(#p3bfefd0f17)" d="M 330.8238 307.584 
L 333.426242 307.584 
L 333.426242 217.439806 
L 330.8238 217.439806 
z
" style="fill:#1f77b4;"/>
   </g>
   <g id="patch_83">
    <path clip-path="url(#p3bfefd0f17)" d="M 334.076852 307.584 
L 336.679293 307.584 
L 336.679293 218.928873 
L 334.076852 218.928873 
z
" style="fill:#1f77b4;"/>
   </g>
   <g id="patch_84">
    <path clip-path="url(#p3bfefd0f17)" d="M 337.329903 307.584 
L 339.932345 307.584 
L 339.932345 220.3552 
L 337.329903 220.3552 
z
" style="fill:#1f77b4;"/>
   </g>
   <g id="patch_85">
    <path clip-path="url(#p3bfefd0f17)" d="M 340.582955 307.584 
L 343.185396 307.584 
L 343.185396 220.729969 
L 340.582955 220.729969 
z
" style="fill:#1f77b4;"/>
   </g>
   <g id="patch_86">
    <path clip-path="url(#p3bfefd0f17)" d="M 343.836007 307.584 
L 346.438448 307.584 
L 346.438448 219.894052 
L 343.836007 219.894052 
z
" style="fill:#1f77b4;"/>
   </g>
   <g id="patch_87">
    <path clip-path="url(#p3bfefd0f17)" d="M 347.089058 307.584 
L 349.691499 307.584 
L 349.691499 218.667562 
L 347.089058 218.667562 
z
" style="fill:#1f77b4;"/>
   </g>
   <g id="patch_88">
    <path clip-path="url(#p3bfefd0f17)" d="M 350.34211 307.584 
L 352.944551 307.584 
L 352.944551 217.309811 
L 350.34211 217.309811 
z
" style="fill:#1f77b4;"/>
   </g>
   <g id="patch_89">
    <path clip-path="url(#p3bfefd0f17)" d="M 353.595161 307.584 
L 356.197602 307.584 
L 356.197602 216.052503 
L 353.595161 216.052503 
z
" style="fill:#1f77b4;"/>
   </g>
   <g id="patch_90">
    <path clip-path="url(#p3bfefd0f17)" d="M 356.848213 307.584 
L 359.450654 307.584 
L 359.450654 215.815486 
L 356.848213 215.815486 
z
" style="fill:#1f77b4;"/>
   </g>
   <g id="patch_91">
    <path clip-path="url(#p3bfefd0f17)" d="M 360.101264 307.584 
L 362.703706 307.584 
L 362.703706 216.722953 
L 360.101264 216.722953 
z
" style="fill:#1f77b4;"/>
   </g>
   <g id="patch_92">
    <path clip-path="url(#p3bfefd0f17)" d="M 363.354316 307.584 
L 365.956757 307.584 
L 365.956757 216.534801 
L 363.354316 216.534801 
z
" style="fill:#1f77b4;"/>
   </g>
   <g id="patch_93">
    <path clip-path="url(#p3bfefd0f17)" d="M 366.607367 307.584 
L 369.209809 307.584 
L 369.209809 216.516619 
L 366.607367 216.516619 
z
" style="fill:#1f77b4;"/>
   </g>
   <g id="patch_94">
    <path clip-path="url(#p3bfefd0f17)" d="M 369.860419 307.584 
L 372.46286 307.584 
L 372.46286 217.474691 
L 369.860419 217.474691 
z
" style="fill:#1f77b4;"/>
   </g>
   <g id="patch_95">
    <path clip-path="url(#p3bfefd0f17)" d="M 373.113471 307.584 
L 375.715912 307.584 
L 375.715912 218.764053 
L 373.113471 218.764053 
z
" style="fill:#1f77b4;"/>
   </g>
   <g id="patch_96">
    <path clip-path="url(#p3bfefd0f17)" d="M 376.366522 307.584 
L 378.968963 307.584 
L 378.968963 219.654502 
L 376.366522 219.654502 
z
" style="fill:#1f77b4;"/>
   </g>
   <g id="patch_97">
    <path clip-path="url(#p3bfefd0f17)" d="M 379.619574 307.584 
L 382.222015 307.584 
L 382.222015 219.498045 
L 379.619574 219.498045 
z
" style="fill:#1f77b4;"/>
   </g>
   <g id="patch_98">
    <path clip-path="url(#p3bfefd0f17)" d="M 382.872625 307.584 
L 385.475066 307.584 
L 385.475066 219.759476 
L 382.872625 219.759476 
z
" style="fill:#1f77b4;"/>
   </g>
   <g id="patch_99">
    <path clip-path="url(#p3bfefd0f17)" d="M 386.125677 307.584 
L 388.728118 307.584 
L 388.728118 220.843638 
L 386.125677 220.843638 
z
" style="fill:#1f77b4;"/>
   </g>
   <g id="patch_100">
    <path clip-path="url(#p3bfefd0f17)" d="M 389.378728 307.584 
L 391.98117 307.584 
L 391.98117 221.422782 
L 389.378728 221.422782 
z
" style="fill:#1f77b4;"/>
   </g>
   <g id="patch_101">
    <path clip-path="url(#p3bfefd0f17)" d="M 392.63178 307.584 
L 395.234221 307.584 
L 395.234221 222.352179 
L 392.63178 222.352179 
z
" style="fill:#1f77b4;"/>
   </g>
   <g id="patch_102">
    <path clip-path="url(#p3bfefd0f17)" d="M 395.884831 307.584 
L 398.487273 307.584 
L 398.487273 222.783458 
L 395.884831 222.783458 
z
" style="fill:#1f77b4;"/>
   </g>
   <g id="matplotlib.axis_1">
    <g id="xtick_1">
     <g id="line2d_1">
      <defs>
       <path d="M 0 0 
L 0 3.5 
" id="mbf8542c0ba" style="stroke:#000000;stroke-width:0.8;"/>
      </defs>
      <g>
       <use style="stroke:#000000;stroke-width:0.8;" x="75.133948" xlink:href="#mbf8542c0ba" y="307.584"/>
      </g>
     </g>
     <g id="text_1">
      <!-- 0 -->
      <g transform="translate(71.952698 322.182437)scale(0.1 -0.1)">
       <defs>
        <path d="M 31.78125 66.40625 
Q 24.171875 66.40625 20.328125 58.90625 
Q 16.5 51.421875 16.5 36.375 
Q 16.5 21.390625 20.328125 13.890625 
Q 24.171875 6.390625 31.78125 6.390625 
Q 39.453125 6.390625 43.28125 13.890625 
Q 47.125 21.390625 47.125 36.375 
Q 47.125 51.421875 43.28125 58.90625 
Q 39.453125 66.40625 31.78125 66.40625 
z
M 31.78125 74.21875 
Q 44.046875 74.21875 50.515625 64.515625 
Q 56.984375 54.828125 56.984375 36.375 
Q 56.984375 17.96875 50.515625 8.265625 
Q 44.046875 -1.421875 31.78125 -1.421875 
Q 19.53125 -1.421875 13.0625 8.265625 
Q 6.59375 17.96875 6.59375 36.375 
Q 6.59375 54.828125 13.0625 64.515625 
Q 19.53125 74.21875 31.78125 74.21875 
z
" id="DejaVuSans-48"/>
       </defs>
       <use xlink:href="#DejaVuSans-48"/>
      </g>
     </g>
    </g>
    <g id="xtick_2">
     <g id="line2d_2">
      <g>
       <use style="stroke:#000000;stroke-width:0.8;" x="140.194979" xlink:href="#mbf8542c0ba" y="307.584"/>
      </g>
     </g>
     <g id="text_2">
      <!-- 20 -->
      <g transform="translate(133.832479 322.182437)scale(0.1 -0.1)">
       <defs>
        <path d="M 19.1875 8.296875 
L 53.609375 8.296875 
L 53.609375 0 
L 7.328125 0 
L 7.328125 8.296875 
Q 12.9375 14.109375 22.625 23.890625 
Q 32.328125 33.6875 34.8125 36.53125 
Q 39.546875 41.84375 41.421875 45.53125 
Q 43.3125 49.21875 43.3125 52.78125 
Q 43.3125 58.59375 39.234375 62.25 
Q 35.15625 65.921875 28.609375 65.921875 
Q 23.96875 65.921875 18.8125 64.3125 
Q 13.671875 62.703125 7.8125 59.421875 
L 7.8125 69.390625 
Q 13.765625 71.78125 18.9375 73 
Q 24.125 74.21875 28.421875 74.21875 
Q 39.75 74.21875 46.484375 68.546875 
Q 53.21875 62.890625 53.21875 53.421875 
Q 53.21875 48.921875 51.53125 44.890625 
Q 49.859375 40.875 45.40625 35.40625 
Q 44.1875 33.984375 37.640625 27.21875 
Q 31.109375 20.453125 19.1875 8.296875 
z
" id="DejaVuSans-50"/>
       </defs>
       <use xlink:href="#DejaVuSans-50"/>
       <use x="63.623047" xlink:href="#DejaVuSans-48"/>
      </g>
     </g>
    </g>
    <g id="xtick_3">
     <g id="line2d_3">
      <g>
       <use style="stroke:#000000;stroke-width:0.8;" x="205.25601" xlink:href="#mbf8542c0ba" y="307.584"/>
      </g>
     </g>
     <g id="text_3">
      <!-- 40 -->
      <g transform="translate(198.89351 322.182437)scale(0.1 -0.1)">
       <defs>
        <path d="M 37.796875 64.3125 
L 12.890625 25.390625 
L 37.796875 25.390625 
z
M 35.203125 72.90625 
L 47.609375 72.90625 
L 47.609375 25.390625 
L 58.015625 25.390625 
L 58.015625 17.1875 
L 47.609375 17.1875 
L 47.609375 0 
L 37.796875 0 
L 37.796875 17.1875 
L 4.890625 17.1875 
L 4.890625 26.703125 
z
" id="DejaVuSans-52"/>
       </defs>
       <use xlink:href="#DejaVuSans-52"/>
       <use x="63.623047" xlink:href="#DejaVuSans-48"/>
      </g>
     </g>
    </g>
    <g id="xtick_4">
     <g id="line2d_4">
      <g>
       <use style="stroke:#000000;stroke-width:0.8;" x="270.317041" xlink:href="#mbf8542c0ba" y="307.584"/>
      </g>
     </g>
     <g id="text_4">
      <!-- 60 -->
      <g transform="translate(263.954541 322.182437)scale(0.1 -0.1)">
       <defs>
        <path d="M 33.015625 40.375 
Q 26.375 40.375 22.484375 35.828125 
Q 18.609375 31.296875 18.609375 23.390625 
Q 18.609375 15.53125 22.484375 10.953125 
Q 26.375 6.390625 33.015625 6.390625 
Q 39.65625 6.390625 43.53125 10.953125 
Q 47.40625 15.53125 47.40625 23.390625 
Q 47.40625 31.296875 43.53125 35.828125 
Q 39.65625 40.375 33.015625 40.375 
z
M 52.59375 71.296875 
L 52.59375 62.3125 
Q 48.875 64.0625 45.09375 64.984375 
Q 41.3125 65.921875 37.59375 65.921875 
Q 27.828125 65.921875 22.671875 59.328125 
Q 17.53125 52.734375 16.796875 39.40625 
Q 19.671875 43.65625 24.015625 45.921875 
Q 28.375 48.1875 33.59375 48.1875 
Q 44.578125 48.1875 50.953125 41.515625 
Q 57.328125 34.859375 57.328125 23.390625 
Q 57.328125 12.15625 50.6875 5.359375 
Q 44.046875 -1.421875 33.015625 -1.421875 
Q 20.359375 -1.421875 13.671875 8.265625 
Q 6.984375 17.96875 6.984375 36.375 
Q 6.984375 53.65625 15.1875 63.9375 
Q 23.390625 74.21875 37.203125 74.21875 
Q 40.921875 74.21875 44.703125 73.484375 
Q 48.484375 72.75 52.59375 71.296875 
z
" id="DejaVuSans-54"/>
       </defs>
       <use xlink:href="#DejaVuSans-54"/>
       <use x="63.623047" xlink:href="#DejaVuSans-48"/>
      </g>
     </g>
    </g>
    <g id="xtick_5">
     <g id="line2d_5">
      <g>
       <use style="stroke:#000000;stroke-width:0.8;" x="335.378073" xlink:href="#mbf8542c0ba" y="307.584"/>
      </g>
     </g>
     <g id="text_5">
      <!-- 80 -->
      <g transform="translate(329.015573 322.182437)scale(0.1 -0.1)">
       <defs>
        <path d="M 31.78125 34.625 
Q 24.75 34.625 20.71875 30.859375 
Q 16.703125 27.09375 16.703125 20.515625 
Q 16.703125 13.921875 20.71875 10.15625 
Q 24.75 6.390625 31.78125 6.390625 
Q 38.8125 6.390625 42.859375 10.171875 
Q 46.921875 13.96875 46.921875 20.515625 
Q 46.921875 27.09375 42.890625 30.859375 
Q 38.875 34.625 31.78125 34.625 
z
M 21.921875 38.8125 
Q 15.578125 40.375 12.03125 44.71875 
Q 8.5 49.078125 8.5 55.328125 
Q 8.5 64.0625 14.71875 69.140625 
Q 20.953125 74.21875 31.78125 74.21875 
Q 42.671875 74.21875 48.875 69.140625 
Q 55.078125 64.0625 55.078125 55.328125 
Q 55.078125 49.078125 51.53125 44.71875 
Q 48 40.375 41.703125 38.8125 
Q 48.828125 37.15625 52.796875 32.3125 
Q 56.78125 27.484375 56.78125 20.515625 
Q 56.78125 9.90625 50.3125 4.234375 
Q 43.84375 -1.421875 31.78125 -1.421875 
Q 19.734375 -1.421875 13.25 4.234375 
Q 6.78125 9.90625 6.78125 20.515625 
Q 6.78125 27.484375 10.78125 32.3125 
Q 14.796875 37.15625 21.921875 38.8125 
z
M 18.3125 54.390625 
Q 18.3125 48.734375 21.84375 45.5625 
Q 25.390625 42.390625 31.78125 42.390625 
Q 38.140625 42.390625 41.71875 45.5625 
Q 45.3125 48.734375 45.3125 54.390625 
Q 45.3125 60.0625 41.71875 63.234375 
Q 38.140625 66.40625 31.78125 66.40625 
Q 25.390625 66.40625 21.84375 63.234375 
Q 18.3125 60.0625 18.3125 54.390625 
z
" id="DejaVuSans-56"/>
       </defs>
       <use xlink:href="#DejaVuSans-56"/>
       <use x="63.623047" xlink:href="#DejaVuSans-48"/>
      </g>
     </g>
    </g>
    <g id="xtick_6">
     <g id="line2d_6">
      <g>
       <use style="stroke:#000000;stroke-width:0.8;" x="400.439104" xlink:href="#mbf8542c0ba" y="307.584"/>
      </g>
     </g>
     <g id="text_6">
      <!-- 100 -->
      <g transform="translate(390.895354 322.182437)scale(0.1 -0.1)">
       <defs>
        <path d="M 12.40625 8.296875 
L 28.515625 8.296875 
L 28.515625 63.921875 
L 10.984375 60.40625 
L 10.984375 69.390625 
L 28.421875 72.90625 
L 38.28125 72.90625 
L 38.28125 8.296875 
L 54.390625 8.296875 
L 54.390625 0 
L 12.40625 0 
z
" id="DejaVuSans-49"/>
       </defs>
       <use xlink:href="#DejaVuSans-49"/>
       <use x="63.623047" xlink:href="#DejaVuSans-48"/>
       <use x="127.246094" xlink:href="#DejaVuSans-48"/>
      </g>
     </g>
    </g>
   </g>
   <g id="matplotlib.axis_2">
    <g id="ytick_1">
     <g id="line2d_7">
      <defs>
       <path d="M 0 0 
L -3.5 0 
" id="m58c0a1243b" style="stroke:#000000;stroke-width:0.8;"/>
      </defs>
      <g>
       <use style="stroke:#000000;stroke-width:0.8;" x="57.6" xlink:href="#m58c0a1243b" y="307.584"/>
      </g>
     </g>
     <g id="text_7">
      <!-- 0 -->
      <g transform="translate(44.2375 311.383219)scale(0.1 -0.1)">
       <use xlink:href="#DejaVuSans-48"/>
      </g>
     </g>
    </g>
    <g id="ytick_2">
     <g id="line2d_8">
      <g>
       <use style="stroke:#000000;stroke-width:0.8;" x="57.6" xlink:href="#m58c0a1243b" y="274.32"/>
      </g>
     </g>
     <g id="text_8">
      <!-- 20 -->
      <g transform="translate(37.875 278.119219)scale(0.1 -0.1)">
       <use xlink:href="#DejaVuSans-50"/>
       <use x="63.623047" xlink:href="#DejaVuSans-48"/>
      </g>
     </g>
    </g>
    <g id="ytick_3">
     <g id="line2d_9">
      <g>
       <use style="stroke:#000000;stroke-width:0.8;" x="57.6" xlink:href="#m58c0a1243b" y="241.056"/>
      </g>
     </g>
     <g id="text_9">
      <!-- 40 -->
      <g transform="translate(37.875 244.855219)scale(0.1 -0.1)">
       <use xlink:href="#DejaVuSans-52"/>
       <use x="63.623047" xlink:href="#DejaVuSans-48"/>
      </g>
     </g>
    </g>
    <g id="ytick_4">
     <g id="line2d_10">
      <g>
       <use style="stroke:#000000;stroke-width:0.8;" x="57.6" xlink:href="#m58c0a1243b" y="207.792"/>
      </g>
     </g>
     <g id="text_10">
      <!-- 60 -->
      <g transform="translate(37.875 211.591219)scale(0.1 -0.1)">
       <use xlink:href="#DejaVuSans-54"/>
       <use x="63.623047" xlink:href="#DejaVuSans-48"/>
      </g>
     </g>
    </g>
    <g id="ytick_5">
     <g id="line2d_11">
      <g>
       <use style="stroke:#000000;stroke-width:0.8;" x="57.6" xlink:href="#m58c0a1243b" y="174.528"/>
      </g>
     </g>
     <g id="text_11">
      <!-- 80 -->
      <g transform="translate(37.875 178.327219)scale(0.1 -0.1)">
       <use xlink:href="#DejaVuSans-56"/>
       <use x="63.623047" xlink:href="#DejaVuSans-48"/>
      </g>
     </g>
    </g>
    <g id="ytick_6">
     <g id="line2d_12">
      <g>
       <use style="stroke:#000000;stroke-width:0.8;" x="57.6" xlink:href="#m58c0a1243b" y="141.264"/>
      </g>
     </g>
     <g id="text_12">
      <!-- 100 -->
      <g transform="translate(31.5125 145.063219)scale(0.1 -0.1)">
       <use xlink:href="#DejaVuSans-49"/>
       <use x="63.623047" xlink:href="#DejaVuSans-48"/>
       <use x="127.246094" xlink:href="#DejaVuSans-48"/>
      </g>
     </g>
    </g>
    <g id="ytick_7">
     <g id="line2d_13">
      <g>
       <use style="stroke:#000000;stroke-width:0.8;" x="57.6" xlink:href="#m58c0a1243b" y="108"/>
      </g>
     </g>
     <g id="text_13">
      <!-- 120 -->
      <g transform="translate(31.5125 111.799219)scale(0.1 -0.1)">
       <use xlink:href="#DejaVuSans-49"/>
       <use x="63.623047" xlink:href="#DejaVuSans-50"/>
       <use x="127.246094" xlink:href="#DejaVuSans-48"/>
      </g>
     </g>
    </g>
    <g id="ytick_8">
     <g id="line2d_14">
      <g>
       <use style="stroke:#000000;stroke-width:0.8;" x="57.6" xlink:href="#m58c0a1243b" y="74.736"/>
      </g>
     </g>
     <g id="text_14">
      <!-- 140 -->
      <g transform="translate(31.5125 78.535219)scale(0.1 -0.1)">
       <use xlink:href="#DejaVuSans-49"/>
       <use x="63.623047" xlink:href="#DejaVuSans-52"/>
       <use x="127.246094" xlink:href="#DejaVuSans-48"/>
      </g>
     </g>
    </g>
    <g id="ytick_9">
     <g id="line2d_15">
      <g>
       <use style="stroke:#000000;stroke-width:0.8;" x="57.6" xlink:href="#m58c0a1243b" y="41.472"/>
      </g>
     </g>
     <g id="text_15">
      <!-- 160 -->
      <g transform="translate(31.5125 45.271219)scale(0.1 -0.1)">
       <use xlink:href="#DejaVuSans-49"/>
       <use x="63.623047" xlink:href="#DejaVuSans-54"/>
       <use x="127.246094" xlink:href="#DejaVuSans-48"/>
      </g>
     </g>
    </g>
   </g>
   <g id="patch_103">
    <path d="M 57.6 307.584 
L 57.6 41.472 
" style="fill:none;stroke:#000000;stroke-linecap:square;stroke-linejoin:miter;stroke-width:0.8;"/>
   </g>
   <g id="patch_104">
    <path d="M 414.72 307.584 
L 414.72 41.472 
" style="fill:none;stroke:#000000;stroke-linecap:square;stroke-linejoin:miter;stroke-width:0.8;"/>
   </g>
   <g id="patch_105">
    <path d="M 57.6 307.584 
L 414.72 307.584 
" style="fill:none;stroke:#000000;stroke-linecap:square;stroke-linejoin:miter;stroke-width:0.8;"/>
   </g>
   <g id="patch_106">
    <path d="M 57.6 41.472 
L 414.72 41.472 
" style="fill:none;stroke:#000000;stroke-linecap:square;stroke-linejoin:miter;stroke-width:0.8;"/>
   </g>
  </g>
 </g>
 <defs>
  <clipPath id="p3bfefd0f17">
   <rect height="266.112" width="357.12" x="57.6" y="41.472"/>
  </clipPath>
 </defs>
</svg>
